<svg width="1328" height="1326" viewBox="0 0 1328 1326" fill="none" xmlns="http://www.w3.org/2000/svg">
<circle cx="663.5" cy="645.5" r="155" stroke="#D4DFEC"/>
<circle cx="664" cy="641" r="240.5" stroke="#D4DFEC"/>
<circle cx="664" cy="645" r="334.5" stroke="#D4DFEC"/>
<circle cx="664" cy="645" r="424.5" stroke="#D4DFEC"/>
<path d="M1206.5 652.5C1206.5 951.837 963.391 1194.5 663.5 1194.5C363.609 1194.5 120.5 951.837 120.5 652.5C120.5 353.163 363.609 110.5 663.5 110.5C963.391 110.5 1206.5 353.163 1206.5 652.5Z" stroke="#D4DFEC"/>
<path d="M1327.5 663C1327.5 1028.89 1030.44 1325.5 664 1325.5C297.558 1325.5 0.5 1028.89 0.5 663C0.5 297.112 297.558 0.5 664 0.5C1030.44 0.5 1327.5 297.112 1327.5 663Z" stroke="#D4DFEC"/>
</svg>
