<svg width="46" height="46" viewBox="0 0 46 46" fill="none" xmlns="http://www.w3.org/2000/svg">
<path d="M0 23C0 10.2974 10.2974 0 23 0C35.7025 0 46 10.2974 46 23C46 35.7025 35.7025 46 23 46C10.2974 46 0 35.7025 0 23ZM23 45.08C35.1944 45.08 45.08 35.1944 45.08 23C45.08 10.8056 35.1944 0.92 23 0.92C10.8056 0.92 0.92 10.8056 0.92 23C0.92 35.1944 10.8056 45.08 23 45.08Z" fill="#8709FC"/>
<path d="M23 6.92471L22.3127 7.38292L7.65017 17.1961L7.1156 17.5398V28.4603L7.65017 28.8039L22.3127 38.6171L23 39.0753L23.6873 38.6171L38.3498 28.8039L38.8844 28.4603V17.5398L38.3498 17.1961L23.6873 7.38292L23 6.92471ZM21.7781 10.6667V17.3107L15.4778 21.549L10.5521 18.2271L21.7781 10.6667ZM24.2218 10.6667L35.4478 18.2271L30.5221 21.549L24.2218 17.3107V10.6667ZM23 19.4489L28.3075 23L23 26.5511L17.6925 23L23 19.4489ZM9.55935 20.4799L13.3013 23L9.55935 25.5201V20.4799ZM36.4406 20.4799V25.5201L32.6986 23L36.4406 20.4799ZM15.516 24.451L21.7781 28.6894V35.3333L10.5521 27.773L15.516 24.451ZM30.484 24.451L35.4478 27.773L24.2218 35.3333V28.6894L30.484 24.451Z" fill="#8709FC"/>
</svg>
