<svg width="46" height="46" viewBox="0 0 46 46" fill="none" xmlns="http://www.w3.org/2000/svg">
<path d="M23 0C10.2983 0 0 10.2983 0 23C0 35.7017 10.2983 46 23 46C35.7017 46 46 35.7017 46 23C46 10.2983 35.7017 0 23 0ZM19.1667 30.6667H15.3333V19.1667H19.1667V30.6667ZM17.25 17.4589C16.0866 17.4589 15.1417 16.5082 15.1417 15.3333C15.1417 14.1603 16.0847 13.2077 17.25 13.2077C18.4153 13.2077 19.3583 14.1603 19.3583 15.3333C19.3583 16.5082 18.4134 17.4589 17.25 17.4589ZM32.5833 30.6667H28.7538V25.1831C28.7538 21.5778 24.9167 21.8826 24.9167 25.1831V30.6667H21.0833V19.1667H24.9167V21.2616C26.588 18.1642 32.5833 17.9342 32.5833 24.2286V30.6667Z" fill="#8709FC"/>
</svg>
