<svg width="46" height="46" viewBox="0 0 46 46" fill="none" xmlns="http://www.w3.org/2000/svg">
<path d="M23 0C10.2983 0 0 10.2983 0 23C0 35.7017 10.2983 46 23 46C35.7017 46 46 35.7017 46 23C46 10.2983 35.7017 0 23 0ZM34.6265 18.4862C34.9772 26.2296 29.2023 34.8622 18.9788 34.8622C15.87 34.8622 12.9777 33.9499 10.5417 32.3878C13.4627 32.7328 16.3779 31.9202 18.6913 30.1089C16.284 30.0648 14.2504 28.4721 13.547 26.2852C14.4114 26.45 15.2624 26.4021 16.0348 26.1912C13.3879 25.6584 11.5594 23.2741 11.6188 20.723C12.3625 21.1351 13.2097 21.3823 14.1124 21.4111C11.661 19.7723 10.9672 16.5351 12.4085 14.0607C15.1225 17.3918 19.1801 19.5826 23.7552 19.8126C22.9521 16.3702 25.5645 13.0525 29.1199 13.0525C30.7012 13.0525 32.1329 13.7214 33.1372 14.7909C34.3907 14.5456 35.5714 14.0856 36.6333 13.455C36.2212 14.7411 35.3491 15.8182 34.2125 16.5006C35.3261 16.3664 36.3879 16.0712 37.3731 15.6323C36.6371 16.7402 35.7056 17.71 34.6265 18.4862Z" fill="#8709FC"/>
</svg>
