<svg width="141" height="42" viewBox="0 0 141 42" fill="none" xmlns="http://www.w3.org/2000/svg">
<path d="M86.9184 40H2V2H86.9184" stroke="#D61D4E" stroke-width="2.32653"/>
<path d="M38.6191 24.0803C38.8611 24.0803 39.0472 24.192 39.1775 24.4153C39.3264 24.6387 39.4009 24.9458 39.4009 25.3367C39.4009 26.0625 39.224 26.6395 38.8704 27.0676C37.977 28.1471 37.0743 28.9847 36.1623 29.5802C35.2503 30.1572 34.1708 30.4457 32.9238 30.4457C31.714 30.4457 30.681 30.12 29.8248 29.4686C28.9873 28.8171 28.187 27.7004 27.4239 26.1184C26.8097 24.8527 26.3257 23.9221 25.9721 23.3265C25.6185 22.7123 25.2648 22.2749 24.9112 22.0144C24.5762 21.7538 24.1574 21.5956 23.6549 21.5398C23.5804 21.9306 23.3664 23.159 23.0128 25.225C22.8639 26.1556 22.7708 26.7233 22.7336 26.928C22.5475 28.0633 22.1752 28.9381 21.6168 29.5523C21.0585 30.1479 20.2116 30.4457 19.0763 30.4457C17.8293 30.4457 16.7218 30.0828 15.754 29.3569C14.8048 28.6124 14.0696 27.5887 13.5484 26.2859C13.0273 24.9644 12.7667 23.4661 12.7667 21.791C12.7667 18.6642 13.3065 15.9654 14.386 13.6947C15.4841 11.424 17.0103 9.69306 18.9646 8.50188C20.9375 7.29208 23.2082 6.68718 25.7767 6.68718C27.5635 6.68718 29.0617 6.95706 30.2715 7.49681C31.4813 8.03657 32.3747 8.78106 32.9517 9.73028C33.5473 10.6795 33.8451 11.7497 33.8451 12.9409C33.8451 13.9832 33.5938 15.0069 33.0913 16.0119C32.6074 16.9984 31.8722 17.8731 30.8857 18.6362C29.8993 19.3993 28.6988 19.967 27.2843 20.3393C28.1777 20.5812 28.8663 20.9721 29.3502 21.5118C29.8342 22.0516 30.3181 22.8426 30.802 23.8849C31.3231 25.0016 31.835 25.8206 32.3375 26.3417C32.8586 26.8629 33.4542 27.1234 34.1243 27.1234C34.7199 27.1234 35.2875 26.928 35.8273 26.5371C36.3671 26.1277 37.0464 25.439 37.8653 24.4712C38.0887 24.2106 38.34 24.0803 38.6191 24.0803ZM19.8022 21.5118C19.1693 21.5118 18.732 21.3629 18.49 21.0651C18.2666 20.7673 18.155 20.4323 18.155 20.0601C18.155 19.6134 18.2946 19.2598 18.5737 18.9992C18.8715 18.7386 19.2066 18.6083 19.5788 18.6083H20.2768C20.5746 16.7843 20.8537 15.2116 21.1143 13.8901C21.3563 12.6803 22.138 12.0754 23.4595 12.0754C24.5204 12.0754 25.0508 12.55 25.0508 13.4993C25.0508 13.704 25.0415 13.8622 25.0229 13.9739L24.1853 18.6083C25.1904 18.5525 26.1024 18.3105 26.9213 17.8824C27.7589 17.4544 28.4196 16.8588 28.9035 16.0957C29.4061 15.3326 29.6573 14.4671 29.6573 13.4993C29.6573 12.3267 29.2572 11.4054 28.4569 10.7353C27.6565 10.0653 26.484 9.73028 24.9391 9.73028C23.1151 9.73028 21.5145 10.1863 20.1372 11.0983C18.7785 11.9917 17.7176 13.3318 16.9545 15.1185C16.1914 16.8867 15.8098 19.0457 15.8098 21.5956C15.8098 22.7868 15.9308 23.8104 16.1728 24.6666C16.4147 25.5228 16.7125 26.1649 17.0662 26.593C17.4198 27.0211 17.7548 27.2351 18.0712 27.2351C18.3132 27.2351 18.5086 27.1141 18.6575 26.8722C18.825 26.6302 18.9553 26.2393 19.0484 25.6996L19.8022 21.5118ZM50.7566 21.7352C50.9986 21.7352 51.1847 21.8562 51.315 22.0981C51.4453 22.3401 51.5104 22.6472 51.5104 23.0194C51.5104 23.9128 51.2406 24.4433 50.7008 24.6108C49.5841 25.0016 48.3557 25.225 47.0156 25.2808C46.662 26.8442 45.964 28.1006 44.9217 29.0498C43.8794 29.9804 42.6975 30.4457 41.3761 30.4457C40.2593 30.4457 39.3008 30.1758 38.5005 29.6361C37.7188 29.0963 37.1232 28.3798 36.7137 27.4864C36.3042 26.593 36.0995 25.6251 36.0995 24.5829C36.0995 23.1683 36.3694 21.912 36.9091 20.8139C37.4489 19.6971 38.1934 18.8317 39.1426 18.2175C40.0918 17.5847 41.1434 17.2682 42.2974 17.2682C43.7119 17.2682 44.8473 17.7615 45.7034 18.7479C46.5782 19.7158 47.09 20.9162 47.2389 22.3494C48.1137 22.2935 49.156 22.1074 50.3658 21.791C50.5147 21.7538 50.645 21.7352 50.7566 21.7352ZM41.5994 27.4864C42.195 27.4864 42.7068 27.2444 43.1349 26.7605C43.5816 26.2766 43.8794 25.5786 44.0283 24.6666C43.4513 24.2758 43.0046 23.7639 42.6882 23.1311C42.3904 22.4983 42.2415 21.8282 42.2415 21.121C42.2415 20.8232 42.2695 20.5254 42.3253 20.2276H42.1857C41.4412 20.2276 40.8177 20.5905 40.3152 21.3164C39.8313 22.0237 39.5893 23.0287 39.5893 24.3316C39.5893 25.3553 39.7847 26.137 40.1756 26.6767C40.5851 27.2165 41.0597 27.4864 41.5994 27.4864ZM53.7598 30.4457C52.6617 30.4457 51.7218 30.1758 50.9401 29.6361C50.177 29.0777 49.6 28.3518 49.2091 27.4584C48.8183 26.5651 48.6229 25.6065 48.6229 24.5829C48.6229 23.1683 48.8834 21.912 49.4046 20.8139C49.9443 19.6971 50.6702 18.8317 51.5822 18.2175C52.4942 17.5847 53.5179 17.2682 54.6532 17.2682C55.7513 17.2682 56.6913 17.5474 57.473 18.1058C58.2547 18.6455 58.841 19.3621 59.2318 20.2555C59.6227 21.1489 59.8181 22.1074 59.8181 23.1311C59.8181 24.5456 59.5482 25.8113 59.0085 26.928C58.4687 28.0261 57.7335 28.8916 56.8029 29.5244C55.8909 30.1386 54.8766 30.4457 53.7598 30.4457ZM54.0669 27.4305C54.6998 27.4305 55.2302 27.0862 55.6583 26.3976C56.105 25.7089 56.3283 24.7038 56.3283 23.3824C56.3283 22.3587 56.1422 21.5863 55.77 21.0651C55.3977 20.544 54.951 20.2834 54.4299 20.2834C53.7598 20.2834 53.2015 20.6278 52.7548 21.3164C52.3267 21.9864 52.1126 22.9915 52.1126 24.3316C52.1126 25.3925 52.2988 26.1742 52.671 26.6767C53.0433 27.1793 53.5086 27.4305 54.0669 27.4305ZM66.676 31.0599C65.7082 31.0599 64.9637 30.8366 64.4425 30.3899C63.94 29.9432 63.6887 29.4407 63.6887 28.8823C63.6887 28.3984 63.8656 27.9796 64.2192 27.626C64.5728 27.2723 65.094 27.0955 65.7826 27.0955C66.0246 27.0955 66.3038 27.1234 66.6202 27.1793C66.9552 27.2165 67.2065 27.2444 67.374 27.263C67.3553 26.7791 67.2437 26.3231 67.0389 25.895C66.8528 25.4669 66.6109 25.0575 66.3131 24.6666C66.0153 24.2571 65.7361 23.9035 65.4755 23.6057C64.8985 24.7038 64.3216 25.6158 63.7446 26.3417C63.1862 27.0676 62.572 27.7562 61.902 28.4077C61.5669 28.7427 61.2133 28.9102 60.8411 28.9102C60.5433 28.9102 60.3013 28.8078 60.1152 28.6031C59.9291 28.3798 59.836 28.1099 59.836 27.7935C59.836 27.4212 59.9663 27.0769 60.2269 26.7605L60.5898 26.3138C61.6135 25.0482 62.3859 24.0059 62.907 23.1869C63.2234 22.6472 63.5957 21.9306 64.0238 21.0372C64.4518 20.1252 64.8706 19.1853 65.2801 18.2175C65.6337 17.3985 66.3689 16.9891 67.4856 16.9891C68.0068 16.9891 68.3697 17.0356 68.5745 17.1287C68.7792 17.2217 68.8816 17.3706 68.8816 17.5753C68.8816 17.687 68.8443 17.8638 68.7699 18.1058C68.6954 18.3478 68.5931 18.5897 68.4628 18.8317C68.1278 19.5017 67.9602 20.0694 67.9602 20.5347C67.9602 20.8139 68.0533 21.121 68.2394 21.456C68.4442 21.791 68.7513 22.2098 69.1607 22.7123C69.7563 23.494 70.203 24.1641 70.5008 24.7224C70.8172 25.2622 70.9754 25.8578 70.9754 26.5092C70.9754 26.6953 70.9568 26.9559 70.9196 27.2909C71.8316 26.9373 72.9018 25.9974 74.1302 24.4712C74.3536 24.2106 74.6048 24.0803 74.884 24.0803C75.126 24.0803 75.3121 24.192 75.4424 24.4153C75.5913 24.6387 75.6657 24.9458 75.6657 25.3367C75.6657 26.0439 75.4889 26.6209 75.1353 27.0676C74.2047 28.2216 73.3113 29.0126 72.4551 29.4407C71.6176 29.8501 70.5753 30.0735 69.3282 30.1107C68.5838 30.7435 67.6997 31.0599 66.676 31.0599ZM85.7765 24.0803C86.0185 24.0803 86.2046 24.192 86.3349 24.4153C86.4838 24.6387 86.5582 24.9458 86.5582 25.3367C86.5582 26.0811 86.3814 26.6581 86.0278 27.0676C85.3391 27.9051 84.362 28.6776 83.0964 29.3848C81.8493 30.0921 80.5093 30.4457 79.0761 30.4457C77.1218 30.4457 75.6049 29.9153 74.5254 28.8544C73.4459 27.7935 72.9062 26.3417 72.9062 24.4991C72.9062 23.2149 73.176 22.0237 73.7158 20.9255C74.2555 19.8088 75 18.9247 75.9493 18.2733C76.9171 17.6219 78.0059 17.2962 79.2157 17.2962C80.2952 17.2962 81.1607 17.6219 81.8121 18.2733C82.4636 18.9061 82.7893 19.7716 82.7893 20.8697C82.7893 22.154 82.324 23.2614 81.3933 24.192C80.4813 25.104 78.9272 25.8299 76.731 26.3696C77.1963 27.2258 78.0804 27.6539 79.3832 27.6539C80.2208 27.6539 81.17 27.3654 82.2309 26.7884C83.3104 26.1928 84.241 25.4204 85.0227 24.4712C85.2461 24.2106 85.4973 24.0803 85.7765 24.0803ZM78.7411 20.0322C78.0524 20.0322 77.4662 20.4323 76.9822 21.2327C76.5169 22.033 76.2843 23.0008 76.2843 24.1362V24.192C77.3824 23.9314 78.2479 23.5406 78.8807 23.0194C79.5135 22.4983 79.8299 21.8934 79.8299 21.2047C79.8299 20.8511 79.7275 20.5719 79.5228 20.3672C79.3367 20.1438 79.0761 20.0322 78.7411 20.0322ZM98.1684 21.8189C98.2242 21.8003 98.3173 21.791 98.4475 21.791C98.7267 21.791 98.9408 21.8841 99.0897 22.0702C99.2386 22.2563 99.313 22.5076 99.313 22.824C99.313 23.401 99.2013 23.857 98.978 24.192C98.7546 24.5084 98.4196 24.7411 97.9729 24.89C97.1168 25.1691 96.2048 25.3087 95.2369 25.3087C94.418 25.3087 93.6456 25.1971 92.9197 24.9737C92.3799 25.8485 91.7844 26.7512 91.1329 27.6818C90.3884 28.7427 89.7463 29.4686 89.2066 29.8594C88.6668 30.2503 88.0526 30.4457 87.3639 30.4457C86.6008 30.4457 85.9959 30.1479 85.5493 29.5523C85.1212 28.9567 84.8513 28.0168 84.7396 26.7326C84.5163 24.1269 84.4046 21.8469 84.4046 19.8926V18.9154C84.4232 18.3012 84.5907 17.8731 84.9071 17.6312C85.2235 17.3892 85.6982 17.2682 86.331 17.2682C86.8149 17.2682 87.1685 17.3799 87.3919 17.6033C87.6338 17.808 87.7548 18.1616 87.7548 18.6642C87.7548 20.8046 87.8851 23.5871 88.1457 27.0118C89.2624 25.3553 90.0999 24.0338 90.6583 23.0473C90.3791 22.5076 90.2395 21.8655 90.2395 21.121C90.2395 20.4882 90.3791 19.874 90.6583 19.2784C90.9375 18.6828 91.319 18.1989 91.803 17.8266C92.2869 17.4544 92.8359 17.2682 93.4502 17.2682C93.9899 17.2682 94.4273 17.4637 94.7623 17.8545C95.0973 18.2268 95.2648 18.7758 95.2648 19.5017C95.2648 20.3393 95.0415 21.2978 94.5948 22.3773C95.3021 22.3401 96.242 22.2005 97.4146 21.9585L98.1684 21.8189ZM109.269 24.0803C109.511 24.0803 109.697 24.192 109.828 24.4153C109.976 24.6387 110.051 24.9458 110.051 25.3367C110.051 26.0811 109.874 26.6581 109.52 27.0676C108.832 27.9051 107.855 28.6776 106.589 29.3848C105.342 30.0921 104.002 30.4457 102.569 30.4457C100.614 30.4457 99.0976 29.9153 98.0181 28.8544C96.9386 27.7935 96.3988 26.3417 96.3988 24.4991C96.3988 23.2149 96.6687 22.0237 97.2084 20.9255C97.7482 19.8088 98.4927 18.9247 99.4419 18.2733C100.41 17.6219 101.499 17.2962 102.708 17.2962C103.788 17.2962 104.653 17.6219 105.305 18.2733C105.956 18.9061 106.282 19.7716 106.282 20.8697C106.282 22.154 105.817 23.2614 104.886 24.192C103.974 25.104 102.42 25.8299 100.224 26.3696C100.689 27.2258 101.573 27.6539 102.876 27.6539C103.713 27.6539 104.663 27.3654 105.724 26.7884C106.803 26.1928 107.734 25.4204 108.515 24.4712C108.739 24.2106 108.99 24.0803 109.269 24.0803ZM102.234 20.0322C101.545 20.0322 100.959 20.4323 100.475 21.2327C100.01 22.033 99.7769 23.0008 99.7769 24.1362V24.192C100.875 23.9314 101.741 23.5406 102.373 23.0194C103.006 22.4983 103.323 21.8934 103.323 21.2047C103.323 20.8511 103.22 20.5719 103.015 20.3672C102.829 20.1438 102.569 20.0322 102.234 20.0322ZM118.286 24.0803C118.528 24.0803 118.714 24.192 118.845 24.4153C118.993 24.6387 119.068 24.9458 119.068 25.3367C119.068 26.0811 118.891 26.6581 118.537 27.0676C117.737 28.054 116.862 28.8637 115.913 29.4965C114.982 30.1293 113.922 30.4457 112.73 30.4457C111.093 30.4457 109.873 29.7012 109.073 28.2122C108.291 26.7233 107.901 24.7969 107.901 22.4331C107.901 20.1624 108.189 17.5753 108.766 14.6718C109.362 11.7683 110.227 9.27428 111.362 7.18971C112.516 5.10514 113.884 4.06285 115.466 4.06285C116.36 4.06285 117.058 4.48163 117.56 5.31918C118.081 6.13812 118.342 7.32 118.342 8.86482C118.342 11.0797 117.728 13.6482 116.499 16.5703C115.271 19.4924 113.605 22.3866 111.502 25.2529C111.632 26.016 111.846 26.5651 112.144 26.9001C112.442 27.2165 112.833 27.3747 113.317 27.3747C114.08 27.3747 114.75 27.1607 115.327 26.7326C115.904 26.2859 116.639 25.5321 117.532 24.4712C117.756 24.2106 118.007 24.0803 118.286 24.0803ZM114.852 6.82677C114.424 6.82677 113.94 7.59918 113.4 9.144C112.861 10.6888 112.386 12.6059 111.977 14.8952C111.567 17.1845 111.344 19.3807 111.307 21.4839C112.628 19.3063 113.68 17.1287 114.461 14.951C115.243 12.7548 115.634 10.754 115.634 8.94857C115.634 7.53404 115.373 6.82677 114.852 6.82677ZM121.345 19.9484C121.308 20.879 121.289 21.6049 121.289 22.126C121.289 23.4661 121.354 24.5177 121.485 25.2808C121.634 26.0253 121.866 26.5651 122.183 26.9001C122.518 27.2165 122.974 27.3747 123.551 27.3747C123.849 27.3747 124.202 27.2816 124.612 27.0955C125.021 26.9094 125.393 26.6674 125.728 26.3696C125.933 26.1835 126.138 26.0904 126.343 26.0904C126.566 26.0904 126.743 26.2207 126.873 26.4813C127.022 26.7233 127.096 27.0211 127.096 27.3747C127.096 27.7283 127.022 28.0727 126.873 28.4077C126.743 28.7427 126.538 29.0219 126.259 29.2452C125.291 30.0456 124.193 30.4457 122.964 30.4457C121.196 30.4457 119.903 29.7105 119.084 28.2402C118.265 26.7512 117.855 24.8155 117.855 22.4331C117.855 21.6142 117.883 20.786 117.939 19.9484H116.85C116.292 19.9484 115.91 19.846 115.706 19.6413C115.52 19.4366 115.426 19.1109 115.426 18.6642C115.426 17.6219 115.845 17.1007 116.683 17.1007H118.274C118.591 15.0534 119.074 13.1829 119.726 11.4891C120.377 9.79543 121.159 8.44604 122.071 7.44098C123.002 6.43592 123.997 5.93339 125.058 5.93339C125.84 5.93339 126.454 6.27771 126.901 6.96637C127.348 7.65502 127.571 8.52049 127.571 9.56277C127.571 12.4477 126.361 14.9603 123.942 17.1007H127.068C127.366 17.1007 127.58 17.1659 127.711 17.2962C127.841 17.4264 127.906 17.6684 127.906 18.022C127.906 19.3063 126.854 19.9484 124.751 19.9484H121.345ZM124.305 8.61355C124.025 8.61355 123.709 8.96718 123.355 9.67445C123.02 10.3631 122.695 11.3309 122.378 12.578C122.08 13.8064 121.829 15.1744 121.624 16.682C122.722 15.7327 123.541 14.6718 124.081 13.4993C124.64 12.3081 124.919 11.2286 124.919 10.2607C124.919 9.16261 124.714 8.61355 124.305 8.61355Z" fill="black"/>
<path d="M132.285 22.1633H140.04V29.9184H132.285V22.1633Z" fill="#1DA1F2"/>
</svg>
