<svg width="726" height="392" viewBox="0 0 726 392" fill="none" xmlns="http://www.w3.org/2000/svg">
<g clip-path="url(#clip0)">
<path opacity="0.2" d="M149.553 73.7296V86.644H137.496C141.274 82.2102 145.293 77.9054 149.553 73.7296Z" fill="#55FBDC"/>
<path opacity="0.2" d="M171.682 70.455H155.493V86.644H171.682V70.455Z" fill="#55FBDC"/>
<path opacity="0.2" d="M193.805 70.455H177.616V86.644H193.805V70.455Z" fill="#55FBDC"/>
<path opacity="0.2" d="M215.934 70.455H199.745V86.644H215.934V70.455Z" fill="#55FBDC"/>
<path opacity="0.2" d="M238.057 70.455H221.868V86.644H238.057V70.455Z" fill="#55FBDC"/>
<path opacity="0.2" d="M260.186 70.455H243.997V86.644H260.186V70.455Z" fill="#55FBDC"/>
<path d="M282.315 70.455H266.126V86.644H282.315V70.455Z" fill="#56CCF2"/>
<path opacity="0.2" d="M304.438 70.455H288.249V86.644H304.438V70.455Z" fill="#55FBDC"/>
<path opacity="0.2" d="M326.567 70.455H310.378V86.644H326.567V70.455Z" fill="#55FBDC"/>
<path opacity="0.2" d="M348.689 70.455H332.5V86.644H348.689V70.455Z" fill="#55FBDC"/>
<path d="M370.819 70.455H354.63V86.644H370.819V70.455Z" fill="#56CCF2"/>
<path opacity="0.2" d="M392.947 70.455H376.758V86.644H392.947V70.455Z" fill="#55FBDC"/>
<path opacity="0.2" d="M415.07 70.455H398.881V86.644H415.07V70.455Z" fill="#55FBDC"/>
<path opacity="0.2" d="M437.199 70.455H421.01V86.644H437.199V70.455Z" fill="#55FBDC"/>
<path opacity="0.2" d="M459.328 70.455H443.139V86.644H459.328V70.455Z" fill="#55FBDC"/>
<path opacity="0.2" d="M481.451 70.455H465.262V86.644H481.451V70.455Z" fill="#55FBDC"/>
<path opacity="0.2" d="M503.58 70.455H487.391V86.644H503.58V70.455Z" fill="#55FBDC"/>
<path d="M525.703 70.455H509.514V86.644H525.703V70.455Z" fill="#56CCF2"/>
<path d="M547.832 70.455H531.643V86.644H547.832V70.455Z" fill="#56CCF2"/>
<path opacity="0.2" d="M569.961 70.455H553.772V86.644H569.961V70.455Z" fill="#55FBDC"/>
<path opacity="0.2" d="M592.084 70.455H575.895V86.644H592.084V70.455Z" fill="#55FBDC"/>
<path d="M614.212 70.455H598.023V86.644H614.212V70.455Z" fill="#56CCF2"/>
<path d="M636.335 70.455H620.146V86.644H636.335V70.455Z" fill="#56CCF2"/>
<path d="M127.431 99.4696V107.148H122.24C123.89 104.534 125.62 101.974 127.431 99.4696Z" fill="#56CCF2"/>
<path opacity="0.2" d="M149.554 90.9594H133.365V107.148H149.554V90.9594Z" fill="#55FBDC"/>
<path d="M171.682 90.9594H155.493V107.148H171.682V90.9594Z" fill="#56CCF2"/>
<path opacity="0.2" d="M193.805 90.9594H177.616V107.148H193.805V90.9594Z" fill="#55FBDC"/>
<path opacity="0.7" d="M215.934 90.9594H199.745V107.148H215.934V90.9594Z" fill="#56CCF2"/>
<path opacity="0.2" d="M238.057 90.9594H221.868V107.148H238.057V90.9594Z" fill="#55FBDC"/>
<path opacity="0.4" d="M260.186 90.9594H243.997V107.148H260.186V90.9594Z" fill="#56CCF2"/>
<path d="M282.315 90.9594H266.126V107.148H282.315V90.9594Z" fill="#56CCF2"/>
<path opacity="0.4" d="M304.438 90.9594H288.249V107.148H304.438V90.9594Z" fill="#56CCF2"/>
<path opacity="0.2" d="M326.567 90.9594H310.378V107.148H326.567V90.9594Z" fill="#55FBDC"/>
<path opacity="0.4" d="M348.689 90.9594H332.5V107.148H348.689V90.9594Z" fill="#56CCF2"/>
<path d="M370.819 90.9594H354.63V107.148H370.819V90.9594Z" fill="#56CCF2"/>
<path opacity="0.4" d="M392.947 90.9594H376.758V107.148H392.947V90.9594Z" fill="#56CCF2"/>
<path opacity="0.4" d="M415.07 90.9594H398.881V107.148H415.07V90.9594Z" fill="#56CCF2"/>
<path opacity="0.2" d="M437.199 90.9594H421.01V107.148H437.199V90.9594Z" fill="#55FBDC"/>
<path opacity="0.4" d="M459.328 90.9594H443.139V107.148H459.328V90.9594Z" fill="#6C63FF"/>
<path opacity="0.4" d="M481.451 90.9594H465.262V107.148H481.451V90.9594Z" fill="#6C63FF"/>
<path opacity="0.2" d="M503.58 90.9594H487.391V107.148H503.58V90.9594Z" fill="#55FBDC"/>
<path opacity="0.2" d="M525.703 90.9594H509.514V107.148H525.703V90.9594Z" fill="#55FBDC"/>
<path opacity="0.4" d="M547.832 90.9594H531.643V107.148H547.832V90.9594Z" fill="#56CCF2"/>
<path opacity="0.2" d="M569.961 90.9594H553.772V107.148H569.961V90.9594Z" fill="#55FBDC"/>
<path d="M592.084 90.9594H575.895V107.148H592.084V90.9594Z" fill="#56CCF2"/>
<path d="M614.212 90.9594H598.023V107.148H614.212V90.9594Z" fill="#56CCF2"/>
<path d="M636.335 90.9594H620.146V107.148H636.335V90.9594Z" fill="#56CCF2"/>
<path opacity="0.2" d="M83.189 113V124.315H67V118.788C72.2382 116.442 77.6509 114.507 83.189 113V113Z" fill="#56CCF2"/>
<path opacity="0.2" d="M105.302 112.689V127.659H89.1128V114.91L105.302 112.689Z" fill="#56CCF2"/>
<path d="M127.425 111.47H111.235V127.659H127.425V111.47Z" fill="#56CCF2"/>
<path opacity="0.7" d="M149.554 111.47H133.365V127.659H149.554V111.47Z" fill="#56CCF2"/>
<path d="M171.682 111.47H155.493V127.659H171.682V111.47Z" fill="#56CCF2"/>
<path opacity="0.7" d="M193.805 111.47H177.616V127.659H193.805V111.47Z" fill="#56CCF2"/>
<path opacity="0.7" d="M215.934 111.47H199.745V127.659H215.934V111.47Z" fill="#56CCF2"/>
<path opacity="0.2" d="M238.057 111.47H221.868V127.659H238.057V111.47Z" fill="#55FBDC"/>
<path opacity="0.4" d="M260.186 111.47H243.997V127.659H260.186V111.47Z" fill="#56CCF2"/>
<path opacity="0.4" d="M282.315 111.47H266.126V127.659H282.315V111.47Z" fill="#56CCF2"/>
<path d="M304.438 111.47H288.249V127.659H304.438V111.47Z" fill="#56CCF2"/>
<path opacity="0.2" d="M326.567 111.47H310.378V127.659H326.567V111.47Z" fill="#55FBDC"/>
<path opacity="0.4" d="M348.689 111.47H332.5V127.659H348.689V111.47Z" fill="#56CCF2"/>
<path d="M370.819 111.47H354.63V127.659H370.819V111.47Z" fill="#56CCF2"/>
<path opacity="0.2" d="M392.947 111.47H376.758V127.659H392.947V111.47Z" fill="#55FBDC"/>
<path opacity="0.4" d="M415.07 111.47H398.881V127.659H415.07V111.47Z" fill="#55FBDC"/>
<path opacity="0.2" d="M437.199 111.47H421.01V127.659H437.199V111.47Z" fill="#6C63FF"/>
<path d="M459.328 111.47H443.139V127.659H459.328V111.47Z" fill="#6C63FF"/>
<path opacity="0.2" d="M481.451 111.47H465.262V127.659H481.451V111.47Z" fill="#6C63FF"/>
<path opacity="0.7" d="M503.58 111.47H487.391V127.659H503.58V111.47Z" fill="#6C63FF"/>
<path opacity="0.7" d="M525.703 111.47H509.514V127.659H525.703V111.47Z" fill="#56CCF2"/>
<path opacity="0.4" d="M547.832 111.47H531.643V127.659H547.832V111.47Z" fill="#56CCF2"/>
<path opacity="0.2" d="M569.961 111.47H553.772V127.659H569.961V111.47Z" fill="#55FBDC"/>
<path d="M592.084 111.47H575.895V127.659H592.084V111.47Z" fill="#56CCF2"/>
<path d="M614.212 111.47H598.023V127.659H614.212V111.47Z" fill="#56CCF2"/>
<path d="M636.335 111.47H620.146V127.659H636.335V111.47Z" fill="#56CCF2"/>
<path opacity="0.2" d="M83.189 130H67V146.189H83.189V130Z" fill="#56CCF2"/>
<path opacity="0.2" d="M105.302 131.975H89.1128V148.164H105.302V131.975Z" fill="#56CCF2"/>
<path opacity="0.2" d="M127.425 131.975H111.235V148.164H127.425V131.975Z" fill="#55FBDC"/>
<path opacity="0.2" d="M149.554 131.975H133.365V148.164H149.554V131.975Z" fill="#55FBDC"/>
<path d="M171.682 131.975H155.493V148.164H171.682V131.975Z" fill="#56CCF2"/>
<path opacity="0.7" d="M193.805 131.975H177.616V148.164H193.805V131.975Z" fill="#56CCF2"/>
<path opacity="0.7" d="M215.934 131.975H199.745V148.164H215.934V131.975Z" fill="#56CCF2"/>
<path opacity="0.2" d="M238.057 131.975H221.868V148.164H238.057V131.975Z" fill="#55FBDC"/>
<path opacity="0.2" d="M260.186 131.975H243.997V148.164H260.186V131.975Z" fill="#55FBDC"/>
<path opacity="0.4" d="M282.315 131.975H266.126V148.164H282.315V131.975Z" fill="#56CCF2"/>
<path opacity="0.4" d="M304.438 131.975H288.249V148.164H304.438V131.975Z" fill="#56CCF2"/>
<path d="M326.567 131.975H310.378V148.164H326.567V131.975Z" fill="#56CCF2"/>
<path opacity="0.2" d="M348.689 131.975H332.5V148.164H348.689V131.975Z" fill="#55FBDC"/>
<path opacity="0.4" d="M370.819 131.975H354.63V148.164H370.819V131.975Z" fill="#56CCF2"/>
<path opacity="0.4" d="M392.947 131.975H376.758V148.164H392.947V131.975Z" fill="#56CCF2"/>
<path opacity="0.4" d="M415.07 131.975H398.881V148.164H415.07V131.975Z" fill="#56CCF2"/>
<path opacity="0.4" d="M437.199 131.975H421.01V148.164H437.199V131.975Z" fill="#6C63FF"/>
<path opacity="0.2" d="M459.328 131.975H443.139V148.164H459.328V131.975Z" fill="#6C63FF"/>
<path opacity="0.2" d="M481.451 131.975H465.262V148.164H481.451V131.975Z" fill="#6C63FF"/>
<path opacity="0.2" d="M503.58 131.975H487.391V148.164H503.58V131.975Z" fill="#6C63FF"/>
<path opacity="0.2" d="M525.703 131.975H509.514V148.164H525.703V131.975Z" fill="#6C63FF"/>
<path opacity="0.7" d="M547.832 131.975H531.643V148.164H547.832V131.975Z" fill="#56CCF2"/>
<path opacity="0.7" d="M569.961 131.975H553.772V148.164H569.961V131.975Z" fill="#56CCF2"/>
<path opacity="0.4" d="M592.084 131.975H575.895V148.164H592.084V131.975Z" fill="#56CCF2"/>
<path opacity="0.2" d="M614.212 131.975H598.023V148.164H614.212V131.975Z" fill="#55FBDC"/>
<path d="M636.335 131.975H620.146V148.164H636.335V131.975Z" fill="#56CCF2"/>
<path opacity="0.2" d="M83.189 152H67V168.189H83.189V152Z" fill="#56CCF2"/>
<path opacity="0.2" d="M105.302 152.485H89.1128V168.674H105.302V152.485Z" fill="#56CCF2"/>
<path opacity="0.4" d="M127.425 152.485H111.235V168.674H127.425V152.485Z" fill="#56CCF2"/>
<path opacity="0.2" d="M149.554 152.485H133.365V168.674H149.554V152.485Z" fill="#55FBDC"/>
<path opacity="0.2" d="M171.682 152.485H155.493V168.674H171.682V152.485Z" fill="#55FBDC"/>
<path opacity="0.7" d="M193.805 152.485H177.616V168.674H193.805V152.485Z" fill="#56CCF2"/>
<path opacity="0.7" d="M215.934 152.485H199.745V168.674H215.934V152.485Z" fill="#56CCF2"/>
<path opacity="0.2" d="M238.057 152.485H221.868V168.674H238.057V152.485Z" fill="#55FBDC"/>
<path opacity="0.2" d="M260.186 152.485H243.997V168.674H260.186V152.485Z" fill="#55FBDC"/>
<path opacity="0.4" d="M282.315 152.485H266.126V168.674H282.315V152.485Z" fill="#56CCF2"/>
<path d="M304.438 152.485H288.249V168.674H304.438V152.485Z" fill="#56CCF2"/>
<path opacity="0.2" d="M326.567 152.485H310.378V168.674H326.567V152.485Z" fill="#55FBDC"/>
<path d="M348.689 152.485H332.5V168.674H348.689V152.485Z" fill="#56CCF2"/>
<path d="M370.819 152.485H354.63V168.674H370.819V152.485Z" fill="#56CCF2"/>
<path d="M392.947 152.485H376.758V168.674H392.947V152.485Z" fill="#56CCF2"/>
<path opacity="0.2" d="M415.07 152.485H398.881V168.674H415.07V152.485Z" fill="#6C63FF"/>
<path d="M437.199 152.485H421.01V168.674H437.199V152.485Z" fill="#6C63FF"/>
<path opacity="0.2" d="M459.328 152.485H443.139V168.674H459.328V152.485Z" fill="#6C63FF"/>
<path opacity="0.2" d="M481.451 152.485H465.262V168.674H481.451V152.485Z" fill="#6C63FF"/>
<path opacity="0.2" d="M503.58 152.485H487.391V168.674H503.58V152.485Z" fill="#6C63FF"/>
<path opacity="0.2" d="M525.703 152.485H509.514V168.674H525.703V152.485Z" fill="#6C63FF"/>
<path opacity="0.2" d="M547.832 152.485H531.643V168.674H547.832V152.485Z" fill="#55FBDC"/>
<path opacity="0.7" d="M569.961 152.485H553.772V168.674H569.961V152.485Z" fill="#56CCF2"/>
<path opacity="0.2" d="M592.084 152.485H575.895V168.674H592.084V152.485Z" fill="#55FBDC"/>
<path opacity="0.2" d="M614.212 152.485H598.023V168.674H614.212V152.485Z" fill="#55FBDC"/>
<path d="M636.335 152.485H620.146V168.674H636.335V152.485Z" fill="#56CCF2"/>
<path opacity="0.2" d="M83.1728 172.99H66.9838V189.179H83.1728V172.99Z" fill="#56CCF2"/>
<path opacity="0.2" d="M105.302 172.99H89.1128V189.179H105.302V172.99Z" fill="#56CCF2"/>
<path opacity="0.2" d="M127.425 172.99H111.235V189.179H127.425V172.99Z" fill="#55FBDC"/>
<path opacity="0.4" d="M149.554 172.99H133.365V189.179H149.554V172.99Z" fill="#56CCF2"/>
<path opacity="0.2" d="M171.682 172.99H155.493V189.179H171.682V172.99Z" fill="#55FBDC"/>
<path opacity="0.2" d="M193.805 172.99H177.616V189.179H193.805V172.99Z" fill="#55FBDC"/>
<path opacity="0.7" d="M215.934 172.99H199.745V189.179H215.934V172.99Z" fill="#56CCF2"/>
<path opacity="0.2" d="M238.057 172.99H221.868V189.179H238.057V172.99Z" fill="#55FBDC"/>
<path opacity="0.2" d="M260.186 172.99H243.997V189.179H260.186V172.99Z" fill="#55FBDC"/>
<path opacity="0.2" d="M282.315 172.99H266.126V189.179H282.315V172.99Z" fill="#55FBDC"/>
<path d="M304.438 172.99H288.249V189.179H304.438V172.99Z" fill="#56CCF2"/>
<path opacity="0.2" d="M326.567 172.99H310.378V189.179H326.567V172.99Z" fill="#55FBDC"/>
<path d="M348.689 172.99H332.5V189.179H348.689V172.99Z" fill="#56CCF2"/>
<path d="M370.819 172.99H354.63V189.179H370.819V172.99Z" fill="#56CCF2"/>
<path opacity="0.2" d="M392.947 172.99H376.758V189.179H392.947V172.99Z" fill="#55FBDC"/>
<path opacity="0.2" d="M415.07 172.99H398.881V189.179H415.07V172.99Z" fill="#55FBDC"/>
<path opacity="0.2" d="M437.199 172.99H421.01V189.179H437.199V172.99Z" fill="#6C63FF"/>
<path opacity="0.2" d="M459.328 172.99H443.139V189.179H459.328V172.99Z" fill="#6C63FF"/>
<path opacity="0.2" d="M481.451 172.99H465.262V189.179H481.451V172.99Z" fill="#6C63FF"/>
<path opacity="0.2" d="M503.58 172.99H487.391V189.179H503.58V172.99Z" fill="#6C63FF"/>
<path opacity="0.2" d="M525.703 172.99H509.514V189.179H525.703V172.99Z" fill="#55FBDC"/>
<path opacity="0.2" d="M547.832 172.99H531.643V189.179H547.832V172.99Z" fill="#55FBDC"/>
<path opacity="0.2" d="M569.961 172.99H553.772V189.179H569.961V172.99Z" fill="#55FBDC"/>
<path opacity="0.2" d="M592.084 172.99H575.895V189.179H592.084V172.99Z" fill="#55FBDC"/>
<path opacity="0.4" d="M614.212 172.99H598.023V189.179H614.212V172.99Z" fill="#55FBDC"/>
<path d="M636.335 172.99H620.146V189.179H636.335V172.99Z" fill="#56CCF2"/>
<path opacity="0.7" d="M83.1728 193.501H66.9838V209.69H83.1728V193.501Z" fill="#56CCF2"/>
<path opacity="0.7" d="M105.302 193.501H89.1128V209.69H105.302V193.501Z" fill="#56CCF2"/>
<path opacity="0.7" d="M127.425 193.501H111.235V209.69H127.425V193.501Z" fill="#56CCF2"/>
<path opacity="0.7" d="M149.554 193.501H133.365V209.69H149.554V193.501Z" fill="#56CCF2"/>
<path opacity="0.7" d="M171.682 193.501H155.493V209.69H171.682V193.501Z" fill="#56CCF2"/>
<path opacity="0.2" d="M193.805 193.501H177.616V209.69H193.805V193.501Z" fill="#55FBDC"/>
<path opacity="0.2" d="M215.934 193.501H199.745V209.69H215.934V193.501Z" fill="#55FBDC"/>
<path opacity="0.2" d="M238.057 193.501H221.868V209.69H238.057V193.501Z" fill="#55FBDC"/>
<path opacity="0.2" d="M260.186 193.501H243.997V209.69H260.186V193.501Z" fill="#55FBDC"/>
<path opacity="0.2" d="M282.315 193.501H266.126V209.69H282.315V193.501Z" fill="#55FBDC"/>
<path opacity="0.2" d="M304.438 193.501H288.249V209.69H304.438V193.501Z" fill="#55FBDC"/>
<path d="M326.567 193.501H310.378V209.69H326.567V193.501Z" fill="#56CCF2"/>
<path opacity="0.2" d="M348.689 193.501H332.5V209.69H348.689V193.501Z" fill="#55FBDC"/>
<path opacity="0.2" d="M370.819 193.501H354.63V209.69H370.819V193.501Z" fill="#55FBDC"/>
<path opacity="0.2" d="M392.947 193.501H376.758V209.69H392.947V193.501Z" fill="#55FBDC"/>
<path d="M415.07 193.501H398.881V209.69H415.07V193.501Z" fill="#56CCF2"/>
<path opacity="0.2" d="M437.199 193.501H421.01V209.69H437.199V193.501Z" fill="#6C63FF"/>
<path opacity="0.2" d="M459.328 193.501H443.139V209.69H459.328V193.501Z" fill="#6C63FF"/>
<path opacity="0.2" d="M481.451 193.501H465.262V209.69H481.451V193.501Z" fill="#6C63FF"/>
<path opacity="0.2" d="M503.58 193.501H487.391V209.69H503.58V193.501Z" fill="#6C63FF"/>
<path opacity="0.2" d="M525.703 193.501H509.514V209.69H525.703V193.501Z" fill="#6C63FF"/>
<path opacity="0.2" d="M547.832 193.501H531.643V209.69H547.832V193.501Z" fill="#6C63FF"/>
<path opacity="0.2" d="M569.961 193.501H553.772V209.69H569.961V193.501Z" fill="#6C63FF"/>
<path opacity="0.2" d="M592.084 193.501H575.895V209.69H592.084V193.501Z" fill="#55FBDC"/>
<path opacity="0.2" d="M614.212 193.501H598.023V209.69H614.212V193.501Z" fill="#56CCF2"/>
<path d="M636.335 193.501H620.146V209.69H636.335V193.501Z" fill="#56CCF2"/>
<path d="M466.138 253.059C478.359 253.059 488.267 243.152 488.267 230.93C488.267 218.709 478.359 208.801 466.138 208.801C453.916 208.801 444.009 218.709 444.009 230.93C444.009 243.152 453.916 253.059 466.138 253.059Z" fill="#767D9F"/>
<path d="M464.989 202.779C467.198 212.416 469.072 222.126 470.612 231.907C471.075 234.814 471.487 237.879 470.434 240.627C469.552 242.918 467.756 244.708 466.347 246.713C464.938 248.718 463.872 251.289 464.729 253.586C465.586 255.883 468.086 257.14 470.472 257.787C477.301 259.627 484.58 258.288 491.376 256.296C494.454 255.504 497.404 254.281 500.14 252.666C503.022 250.838 505.382 248.3 507.553 245.685C517.459 233.672 523.945 219.253 530.05 204.924C526.127 205.281 522.175 204.699 518.522 203.227C514.868 201.755 511.617 199.435 509.038 196.458C506.537 193.52 504.703 189.426 506.112 185.834C501.981 188.1 497.075 188.252 492.627 189.801C489.868 190.854 487.212 192.161 484.694 193.704C481.656 195.459 478.635 197.249 475.632 199.072C472.198 201.141 468.981 202.982 464.989 202.779Z" fill="#AE6E79"/>
<path d="M511.272 219.393C507.394 226.938 502.349 234.192 495.146 238.685C487.943 243.178 478.246 244.397 471.031 239.954C467.477 237.784 464.786 234.484 461.683 231.704C458.579 228.925 454.702 226.545 450.532 226.907C445.938 227.307 442.34 230.892 439.262 234.325C434.591 239.542 430.079 244.981 426.772 251.155C420.426 263.023 418.922 276.895 419.202 290.349C419.481 303.803 421.429 317.187 421.473 330.641C421.537 347.192 418.732 363.609 415.895 379.912C441.978 376.701 468.092 383.72 494.232 386.379C510.961 388.099 527.816 388.061 544.633 388.017C547.591 388.017 550.738 387.94 553.201 386.303C554.706 385.205 555.923 383.759 556.748 382.089C559.071 377.806 560.004 372.919 560.651 368.09C562.295 355.892 562.345 343.543 562.39 331.231C562.504 301.404 562.612 271.469 558.823 241.877C557.89 234.598 556.697 227.281 553.905 220.472C551.113 213.662 546.556 207.399 540.185 203.75C536.091 201.402 526.604 197.315 521.781 199.682C516.367 202.322 513.867 214.341 511.272 219.393Z" fill="#767D9F"/>
<path d="M513.201 303.619C512.217 285.215 508.213 265.574 516.736 249.239C518.83 245.228 511.316 240.221 513.639 236.337C516.473 231.602 518.623 226.489 520.023 221.151C520.505 219.317 520.892 217.375 520.435 215.534C519.591 212.177 516.272 210.178 513.455 208.135C510.345 205.876 508.746 198.99 507.743 195.265C506.74 191.54 515.72 196.026 519.331 194.7C524.345 192.866 530.716 194.021 535.717 195.88C538.509 196.908 541.543 196.997 544.519 197.073C550.3 197.226 556.101 197.372 561.838 196.661C564.414 196.337 566.997 195.849 569.586 195.995C576.193 196.369 581.936 200.887 585.845 206.231C589.754 211.574 592.242 217.8 595.447 223.588C598.119 228.411 601.304 232.967 603.583 237.987C605.601 242.429 606.876 247.202 608.139 251.949L611.395 264.127C611.964 265.869 612.235 267.695 612.194 269.527C612.029 271.476 611.166 273.291 610.291 275.023C606.979 281.445 603.008 287.504 598.442 293.103C591.595 301.499 583.281 309.07 579.214 319.123C577.627 323.038 576.745 327.201 575.939 331.352C572.689 347.951 570.38 364.721 569.022 381.582C561.606 378.15 553.833 375.551 545.845 373.833C541.864 372.981 537.838 372.345 533.788 371.929C530.24 371.561 525.665 372.259 522.289 371.294C516.64 369.689 516.019 360.138 515.162 355.137C513.791 347.173 513.518 339.069 513.467 331.022C513.404 321.871 513.689 312.738 513.201 303.619Z" fill="#444053"/>
<path d="M389.165 269.204C391.837 284.435 394.782 299.71 400.588 314.02C400.442 314.16 400.296 314.287 400.15 314.414C399.636 314.852 399.103 315.264 398.545 315.683C397.244 316.597 395.816 317.371 394.737 318.564C394.329 319.021 394.006 319.548 393.785 320.119C393.586 320.565 393.483 321.049 393.483 321.537C393.483 322.026 393.586 322.509 393.785 322.956C390.758 324.295 387.242 323.882 383.847 323.755C380.922 323.647 378.085 323.755 375.737 325.361C372.475 327.607 371.491 331.923 370.964 335.845C370.77 337.275 370.603 338.707 370.463 340.141C370.328 341.474 370.218 342.811 370.133 344.152C369.845 348.589 369.805 353.038 370.012 357.479C370.046 358.291 370.091 359.103 370.146 359.916C359.776 359.668 350.327 354.261 341.385 349.007C339.342 347.807 337.235 346.544 335.908 344.564C334.686 342.62 334.169 340.315 334.442 338.034C334.442 337.711 334.499 337.4 334.544 337.07C334.828 335.186 335.315 333.339 335.997 331.561C338.795 323.986 342.918 316.97 348.175 310.841C350.447 308.188 353.005 305.593 354.065 302.261C354.528 300.808 354.699 299.266 355.169 297.819C357.276 291.549 364.878 288.585 367.48 282.499C368.115 281.046 368.407 279.453 369.194 278.057C369.902 276.896 370.816 275.875 371.891 275.042C372.354 274.655 372.837 274.281 373.312 273.906C377.772 270.412 382.068 266.72 386.202 262.832C386.972 262.109 387.733 261.377 388.486 260.637C388.386 263.509 388.613 266.383 389.165 269.204V269.204Z" fill="#444053"/>
<path d="M453.115 224.159C452.201 225.123 451.211 226.031 450.24 226.932L449.98 227.167L448.952 228.119C447.086 229.729 445.471 231.609 444.161 233.697L444.053 233.875C440.816 239.669 442.016 246.802 442.917 253.383C444.035 261.584 444.538 269.857 444.421 278.133C444.256 289.556 442.911 300.903 442.885 312.313C442.885 314.902 442.942 317.485 443.057 320.075C443.241 324.282 443.558 328.483 443.939 332.684C444.351 337.292 444.846 341.893 445.31 346.494C445.678 350.054 446.027 353.608 446.319 357.162C446.465 359.002 446.604 360.836 446.718 362.676C446.852 364.834 446.96 366.998 447.023 369.156C447.067 370.527 447.093 371.891 447.093 373.262C447.093 374.042 447.093 374.817 447.093 375.591C447.093 377.076 447.053 378.557 446.972 380.033C446.888 381.933 446.759 383.837 446.585 385.745C446.388 387.82 446.039 390.085 444.58 391.545C444.491 391.634 444.396 391.716 444.3 391.799L442.244 391.545C428.07 389.848 413.76 389.593 399.535 390.783C399.846 388.638 400.131 386.5 400.411 384.348C400.537 383.333 400.664 382.311 400.785 381.29C400.925 380.122 401.058 378.954 401.185 377.787C401.331 376.517 401.464 375.248 401.591 373.979C401.921 370.708 402.211 367.436 402.46 364.161C402.828 359.385 403.108 354.6 403.298 349.806C403.391 347.517 403.463 345.227 403.514 342.933C403.586 340.09 403.62 337.245 403.615 334.398C403.615 331.631 403.592 328.86 403.546 326.084C403.546 325.171 403.507 324.257 403.431 323.349C403.377 322.532 403.264 321.72 403.095 320.919C402.624 319.071 401.986 317.27 401.191 315.537C401.051 315.207 400.918 314.902 400.785 314.553C400.709 314.382 400.639 314.204 400.569 314.033C404.225 310.777 406.826 306.418 409.327 302.128C413.382 295.217 417.532 288.001 418.211 280.018C418.89 272.034 414.924 263.067 407.296 260.63C405.221 259.996 403.025 259.818 400.886 259.443C398.868 259.088 394.661 258.282 392.326 256.835C391.056 258.138 389.787 259.418 388.518 260.675C388.595 258.757 389.063 256.876 389.895 255.147L390.796 255.192C390.723 254.988 390.688 254.773 390.695 254.557C390.695 253.878 391.164 253.11 392.167 252.26C395.156 249.721 399.858 249.156 401.743 245.723C402.53 244.295 402.663 242.594 403.298 241.097C405.119 236.826 410.349 235.252 413.496 231.838C416.644 228.423 417.431 223.588 419.976 219.78C421.877 216.999 424.513 214.802 427.591 213.434C427.845 213.313 428.105 213.193 428.365 213.085C433.633 210.832 439.89 210.318 445.348 210.331C447.467 210.331 452.963 210.394 455.654 211.467C456.09 211.622 456.49 211.867 456.828 212.184C459.696 215.306 455.235 221.9 453.115 224.159Z" fill="#444053"/>
<path d="M390.111 254.703C395.013 253.227 400.16 252.74 405.252 253.271C410.344 253.801 415.28 255.339 419.773 257.793C424.342 260.332 428.442 263.873 430.955 268.442C434.731 275.296 434.566 283.559 434.299 291.384C434.166 295.299 433.994 299.354 432.268 302.87C430.269 306.938 426.5 309.73 422.654 312.015C420.245 313.552 417.605 314.694 414.835 315.397C410.571 316.324 406.141 315.537 401.845 314.763C397.174 313.9 392.161 312.859 388.918 309.381C387.014 307.363 385.973 304.742 384.945 302.178C383.468 298.477 381.988 294.779 380.503 291.085C377.932 284.669 377.063 279.332 380.458 273.081C382 270.232 383.885 267.567 385.408 264.698C386.17 263.238 388.899 255.077 390.111 254.703Z" fill="#444053"/>
<path d="M656.827 364.409V383.384C643.809 388.792 629.845 391.553 615.748 391.507H444.599C444.51 391.596 444.415 391.678 444.32 391.761L442.263 391.507H137.819C112.276 391.507 88.605 384.615 69.1921 372.875V343.904L215.611 327.005H215.725L300.992 334.227L323.057 336.13L334.518 337.101L358.24 339.113L370.444 340.147L388.213 341.658L390.714 341.867L403.52 342.952L420.896 344.38L445.329 346.449L486.058 349.908L514.711 352.338L561.762 356.33L570.71 357.085L571.674 357.168L572.512 357.238L584.328 358.24L597.3 359.345L598.804 359.472L656.827 364.409Z" fill="#504F60"/>
<path d="M484.846 363.711L301.354 332.393L294.24 368.369L378.351 378.44L404.25 381.683L475.492 367.652L484.846 363.711Z" fill="#D4DFEC"/>
<path d="M389.863 379.881L481.794 362.6C482.254 362.512 482.727 362.527 483.181 362.644C483.634 362.76 484.056 362.976 484.417 363.275C484.777 363.574 485.067 363.949 485.265 364.373C485.463 364.798 485.565 365.261 485.563 365.729C485.565 366.472 485.307 367.192 484.832 367.763C484.358 368.335 483.698 368.722 482.968 368.857L393.189 385.668L389.863 379.881Z" fill="#D4DFEC"/>
<path d="M429.742 325.539C432.605 325.272 435.505 324.822 438.081 323.552C441.254 321.972 443.723 319.25 446.661 317.244C453.122 312.802 461.765 312.205 469.171 314.757C476.577 317.308 482.758 322.772 487.086 329.296C489.961 333.643 492.119 339.189 490.088 343.987C489.391 345.453 488.513 346.827 487.473 348.074L482.181 354.991C481.175 356.445 479.966 357.747 478.589 358.856C476.609 360.297 474.147 360.887 471.722 361.242C465.281 362.181 458.725 361.648 452.233 362.08C441.083 362.822 430.193 366.414 419.017 366.294C412.595 366.224 406.255 364.929 399.979 363.635L372.202 357.923C367.366 356.933 361.902 355.486 359.624 351.101C358.602 349.127 358.412 346.843 358.291 344.622C357.961 338.504 358.291 331.701 362.53 327.29C366.516 323.152 372.817 321.845 377.577 318.786C383.403 315.036 385.326 316.248 391.469 319.066C403.453 324.493 416.64 326.723 429.742 325.539V325.539Z" fill="#AE6E79"/>
<path opacity="0.05" d="M429.742 325.539C432.605 325.272 435.505 324.822 438.081 323.552C441.254 321.972 443.723 319.25 446.661 317.244C453.122 312.802 461.765 312.205 469.171 314.757C476.577 317.308 482.758 322.772 487.086 329.296C489.961 333.643 492.119 339.189 490.088 343.987C489.391 345.453 488.513 346.827 487.473 348.074L482.181 354.991C481.175 356.445 479.966 357.747 478.589 358.856C476.609 360.297 474.147 360.887 471.722 361.242C465.281 362.181 458.725 361.648 452.233 362.08C441.083 362.822 430.193 366.414 419.017 366.294C412.595 366.224 406.255 364.929 399.979 363.635L372.202 357.923C367.366 356.933 361.902 355.486 359.624 351.101C358.602 349.127 358.412 346.843 358.291 344.622C357.961 338.504 358.291 331.701 362.53 327.29C366.516 323.152 372.817 321.845 377.577 318.786C383.403 315.036 385.326 316.248 391.469 319.066C403.453 324.493 416.64 326.723 429.742 325.539V325.539Z" fill="black"/>
<path d="M541.289 316.838C533.496 319.852 525.658 322.88 517.497 324.676C503.815 327.69 489.498 327.214 475.923 330.66C468.752 332.488 461.626 335.432 454.258 334.836C450.964 334.569 447.785 333.567 444.58 332.805C426.576 328.363 406.109 329.803 391.488 341.226C386.487 345.129 382.394 349.997 378.681 355.188C377.887 356.309 377.35 357.592 377.109 358.945C376.868 360.298 376.929 361.687 377.287 363.014C377.645 364.34 378.292 365.571 379.182 366.619C380.071 367.666 381.181 368.504 382.432 369.073C388.118 371.688 394.209 373.313 400.442 373.877C408.775 374.613 417.145 373.433 425.433 372.253C437.732 370.507 450.037 368.756 462.305 366.795C466.709 366.091 471.113 365.361 475.543 364.802C507.419 360.772 539.874 365.672 571.833 362.308C575.063 361.966 578.35 361.521 581.289 360.144C588.726 356.654 592.407 347.452 590.871 339.367C589.336 331.282 583.408 324.561 576.275 320.436C570.297 316.965 563.849 315.562 557.192 314.09C551.011 312.65 547.242 314.553 541.289 316.838Z" fill="#AE6E79"/>
<path opacity="0.1" d="M609.656 268.506C613.172 273.113 613.92 279.294 613.54 285.063C613.159 290.832 611.788 296.537 611.585 302.331C611.306 310.276 613.222 318.196 612.899 326.116C612.67 331.656 611.357 337.089 609.802 342.407C607.968 348.683 605.315 355.429 599.521 358.443C591.829 362.448 575.698 360.195 567.606 363.33C568.342 358.742 575.399 352.097 576.135 347.509C576.643 344.336 577.157 341.074 576.611 337.895C575.913 333.839 573.534 330.241 570.709 327.246C566.216 322.48 560.353 318.894 553.911 317.727C547.47 316.559 531.7 317.517 526.547 321.585C525.912 317.384 537.716 313.335 541.866 312.427C543.935 311.964 546.309 312.224 547.965 310.911C551.138 308.423 548.834 303.467 548.987 299.488C549.107 296.315 550.96 293.408 551.335 290.235C551.969 285.158 548.657 279.986 549.958 275.004C550.44 273.164 551.512 271.546 552.255 269.794C554.514 264.432 553.524 258.314 552.318 252.615C551.569 249.036 550.84 245 552.832 241.947C554.679 239.098 559.921 249.245 563.278 248.776C574.365 247.221 584.398 239.002 593.353 245.729C597.915 249.156 598.512 252.71 600.333 257.603C602.104 262.261 606.692 264.647 609.656 268.506Z" fill="black"/>
<path d="M611.56 268.506C615.075 273.113 615.824 279.294 615.443 285.063C615.063 290.832 613.692 296.537 613.489 302.331C613.21 310.276 615.126 318.196 614.803 326.116C614.574 331.656 613.26 337.089 611.706 342.407C609.872 348.683 607.219 355.429 601.425 358.443C593.733 362.448 577.601 360.195 569.51 363.33C570.246 358.742 577.303 352.097 578.039 347.509C578.547 344.336 579.061 341.074 578.515 337.895C577.817 333.839 575.437 330.241 572.613 327.246C568.12 322.48 562.256 318.894 555.815 317.727C549.374 316.559 533.603 317.517 528.45 321.585C527.816 317.384 539.62 313.335 543.77 312.428C545.839 311.964 548.212 312.224 549.869 310.911C553.042 308.423 550.738 303.467 550.89 299.488C551.011 296.315 552.864 293.408 553.238 290.235C553.873 285.158 550.56 279.986 551.861 275.004C552.344 273.164 553.416 271.546 554.159 269.794C556.418 264.432 555.428 258.314 554.222 252.615C553.473 249.036 552.743 245 554.736 241.947C556.583 239.098 560.194 238.019 563.551 237.543C574.791 236.023 586.18 238.961 595.282 245.729C599.845 249.156 600.441 252.71 602.263 257.603C604.008 262.261 608.596 264.647 611.56 268.506Z" fill="#444053"/>
<path d="M191.654 238.438L226.158 365.957C226.581 367.52 227.471 368.916 228.708 369.96C229.945 371.004 231.47 371.647 233.082 371.802L388.385 386.722C389.65 386.844 390.927 386.661 392.107 386.188C393.288 385.715 394.338 384.967 395.169 384.005C396.001 383.043 396.59 381.895 396.887 380.659C397.183 379.422 397.18 378.133 396.876 376.898L359.091 223.08C358.641 221.252 357.558 219.642 356.033 218.537C354.509 217.432 352.642 216.903 350.765 217.045L198.717 228.417C197.55 228.508 196.417 228.855 195.399 229.434C194.381 230.013 193.504 230.809 192.829 231.766C192.154 232.723 191.699 233.818 191.496 234.971C191.293 236.124 191.347 237.308 191.654 238.438V238.438Z" fill="#D4DFEC"/>
<path d="M499.512 263.321C508.94 263.321 516.583 255.578 516.583 246.028C516.583 236.477 508.94 228.734 499.512 228.734C490.084 228.734 482.441 236.477 482.441 246.028C482.441 255.578 490.084 263.321 499.512 263.321Z" fill="white"/>
<path d="M513.531 214.481C513.531 214.481 517.129 225.181 506.512 229.68L505.154 232.053L511.805 238.615C511.805 238.615 520.004 223.657 519.115 218.346C519.115 218.346 517.846 212.952 513.531 214.481Z" fill="white"/>
<path d="M501.473 263.321C510.565 263.321 517.935 255.951 517.935 246.859C517.935 237.767 510.565 230.397 501.473 230.397C492.381 230.397 485.011 237.767 485.011 246.859C485.011 255.951 492.381 263.321 501.473 263.321Z" fill="#6C63FF"/>
<path d="M519.198 220.776L516.583 216.461L512.776 215.922C513.588 201.712 509.901 197.48 509.901 197.48L509.044 197.397L505.312 197.035L498.294 189.75V187.681C508.156 188.855 513.607 193.539 516.551 199.028C521.755 208.662 519.198 220.776 519.198 220.776Z" fill="#6C63FF"/>
<path opacity="0.1" d="M509.076 194.782V197.397L505.344 197.035L498.325 189.75C498.325 189.75 509.184 192.181 509.076 194.782Z" fill="black" stroke="#4C4981" stroke-width="0.634615" stroke-miterlimit="10"/>
<path opacity="0.1" d="M519.198 220.776L516.583 216.461V199.053C521.755 208.662 519.198 220.776 519.198 220.776Z" fill="black" stroke="#4C4981" stroke-width="0.634615" stroke-miterlimit="10"/>
<path d="M471.054 253.626C475.434 251.097 475.245 242.571 470.633 234.582C466.02 226.593 458.731 222.167 454.351 224.695C449.971 227.224 450.159 235.751 454.771 243.739C459.384 251.728 466.674 256.155 471.054 253.626Z" fill="white"/>
<path d="M465.173 237.765C469.787 245.755 475.448 251.092 471.069 253.63C466.69 256.169 453.934 254.9 449.32 246.903C444.707 238.907 448.895 227.865 453.274 225.327C457.653 222.788 460.553 229.756 465.173 237.765Z" fill="#6C63FF"/>
<path opacity="0.1" d="M506.252 180.205C506.252 205.736 488.781 230.34 463.25 230.34C450.989 230.34 439.23 225.469 430.56 216.799C421.889 208.129 417.019 196.37 417.019 184.108C417.019 171.847 421.889 160.088 430.56 151.417C439.23 142.747 450.989 137.877 463.25 137.877C488.781 137.902 506.252 154.668 506.252 180.205Z" fill="black"/>
<path d="M463.25 229.096C488.783 229.096 509.482 208.397 509.482 182.864C509.482 157.331 488.783 136.633 463.25 136.633C437.717 136.633 417.019 157.331 417.019 182.864C417.019 208.397 437.717 229.096 463.25 229.096Z" fill="#AE6E79"/>
<path d="M459.189 162.379C464.691 164.403 467.946 170.09 472.884 173.256C479.864 177.699 488.952 176.55 496.923 174.354C501.365 173.142 506.01 171.663 510.383 173.009C511.026 173.294 511.736 173.395 512.433 173.301C513.385 173.028 513.854 171.974 514.165 171.035C519.572 154.916 517.142 136.658 508.981 121.745C506.874 117.899 504.348 114.18 500.87 111.508C498.129 109.408 494.905 108.031 491.655 106.857C485.718 104.724 479.576 103.208 473.328 102.332C472.224 102.131 471.097 102.095 469.983 102.224C468.454 102.471 467.083 103.296 465.719 104.033C459.875 107.165 453.395 108.925 446.769 109.179C437.885 109.516 427.731 107.421 420.883 113.12C412.633 119.955 414.689 133.288 409.34 142.566C405.798 148.703 398.97 153.158 397.847 160.145C397.554 162.281 397.69 164.453 398.246 166.536C400.861 177.286 411.269 185.612 422.362 185.809C424.065 185.939 425.771 185.589 427.286 184.8C428.279 184.123 429.156 183.289 429.882 182.331C437.148 173.726 445.462 157.328 459.189 162.379Z" fill="#444053"/>
<path opacity="0.1" d="M514.165 166.358C513.854 167.297 513.385 168.351 512.433 168.624C511.736 168.718 511.026 168.617 510.383 168.332C506.011 166.986 501.34 168.465 496.929 169.677C488.952 171.873 479.845 173.047 472.89 168.579C467.946 165.406 464.697 159.695 459.189 157.702C445.462 152.625 437.148 169.049 429.863 177.654C429.137 178.612 428.26 179.445 427.268 180.123C425.752 180.912 424.046 181.262 422.343 181.132C411.288 180.935 400.874 172.609 398.228 161.859C398.082 161.224 397.955 160.589 397.859 159.955C397.859 160.012 397.859 160.063 397.828 160.12C397.535 162.255 397.671 164.428 398.228 166.51C400.842 177.261 411.256 185.587 422.343 185.784C424.046 185.914 425.752 185.564 427.268 184.775C428.26 184.097 429.137 183.263 429.863 182.306C437.148 173.701 445.462 157.302 459.189 162.354C464.697 164.378 467.946 170.064 472.89 173.231C479.871 177.673 488.952 176.525 496.929 174.329C501.372 173.117 506.011 171.638 510.383 172.983C511.026 173.268 511.736 173.369 512.433 173.275C513.385 173.003 513.854 171.949 514.165 171.01C516.346 164.414 517.31 157.477 517.008 150.537C516.822 155.92 515.864 161.247 514.165 166.358V166.358Z" fill="black"/>
<circle cx="404.25" cy="164.365" r="6.98077" fill="#444053"/>
<circle cx="406.788" cy="151.038" r="6.98077" fill="#444053"/>
<circle cx="409.327" cy="142.154" r="6.98077" fill="#444053"/>
<circle cx="413.135" cy="132" r="6.98077" fill="#444053"/>
<circle cx="417.577" cy="125.654" r="6.98077" fill="#444053"/>
<circle cx="420.75" cy="118.038" r="6.98077" fill="#444053"/>
<circle cx="425.192" cy="111.692" r="6.98077" fill="#444053"/>
<circle cx="431.538" cy="107.25" r="6.98077" fill="#444053"/>
<circle cx="440.423" cy="99.6346" r="6.98077" fill="#444053"/>
<circle cx="440.423" cy="112.327" r="6.98077" fill="#444053"/>
<circle cx="449.942" cy="106.615" r="6.98077" fill="#444053"/>
<circle cx="449.942" cy="97.0962" r="6.98077" fill="#444053"/>
<circle cx="457.558" cy="106.615" r="6.98077" fill="#444053"/>
<circle cx="461.365" cy="94.5577" r="6.98077" fill="#444053"/>
<circle cx="463.904" cy="100.269" r="6.98077" fill="#444053"/>
<circle cx="470.25" cy="95.8269" r="6.98077" fill="#444053"/>
<circle cx="478.5" cy="95.8269" r="6.98077" fill="#444053"/>
<circle cx="478.5" cy="102.173" r="6.98077" fill="#444053"/>
<circle cx="487.385" cy="99.6346" r="6.98077" fill="#444053"/>
<circle cx="495" cy="104.077" r="6.98077" fill="#444053"/>
<circle cx="504.519" cy="111.058" r="6.98077" fill="#444053"/>
<circle cx="508.961" cy="118.673" r="6.98077" fill="#444053"/>
<circle cx="511.5" cy="126.288" r="6.98077" fill="#444053"/>
<circle cx="513.404" cy="133.904" r="6.98077" fill="#444053"/>
<circle cx="515.942" cy="142.788" r="6.98077" fill="#444053"/>
<circle cx="515.942" cy="154.212" r="6.98077" fill="#444053"/>
<circle cx="515.942" cy="161.192" r="6.98077" fill="#444053"/>
<circle cx="513.404" cy="168.173" r="6.98077" fill="#444053"/>
</g>
<defs>
<clipPath id="clip0">
<rect width="726" height="391.761" fill="white"/>
</clipPath>
</defs>
</svg>
