<svg width="732" height="441" viewBox="0 0 732 441" fill="none" xmlns="http://www.w3.org/2000/svg">
<g clip-path="url(#clip0)">
<g opacity="0.1">
<path opacity="0.1" d="M129.529 35.0861V440.634L95.8706 441C88.6878 441.081 81.5353 440.056 74.6641 437.96V84.4248H74.7197C91.2508 64.0925 109.786 47.1264 129.529 35.0861Z" fill="#6C63FF"/>
<path opacity="0.1" d="M825.281 93.2421H67.794C70.0469 90.2499 72.337 87.3321 74.6641 84.4885V84.4248H823.396C824.122 87.3055 824.751 90.2446 825.281 93.2421Z" fill="#6C63FF"/>
<path opacity="0.1" d="M554.112 10.8784V436.026L545.27 436.122V12.6928C548.205 12.072 551.147 11.4593 554.112 10.8784Z" fill="#6C63FF"/>
<path opacity="0.1" d="M341.817 50.3254V438.334L332.983 438.43V49.9037C335.933 50.0946 338.883 50.2061 341.817 50.3254Z" fill="#6C63FF"/>
<path opacity="0.1" d="M761.757 354.61C760.325 357.618 758.913 360.567 757.518 363.459H11.5375C10.5145 360.546 9.56029 357.596 8.67503 354.61H761.757Z" fill="#6C63FF"/>
</g>
<path d="M183.36 211.543H168.253V257.428H183.36V211.543Z" fill="#3F3D56"/>
<path d="M589.942 209.156H574.834V257.699H589.942V209.156Z" fill="#3F3D56"/>
<path d="M686.289 424.671V435.016L565.491 436.13L564.203 436.154L518.291 436.575L517.194 436.591L503.239 436.711H502.826L417.761 437.499L278.126 438.796H278.006L242.503 439.13L242.122 439.138L84.3649 440.586V428.649L121.458 406.367L195.884 405.747L197.474 405.739L197.999 405.731L199.589 405.707L235.323 405.413L236.921 405.405L237.43 405.397L239.02 405.389L250.479 405.293L250.781 405.285L279.048 405.046H279.279L499.852 403.184L505.251 403.145H505.792L509.91 403.105L539.848 402.858L541.438 402.834L542.909 402.818H543.672L552.983 402.747L554.828 402.723L557.301 402.707L565.054 402.635L577.355 402.532L578.945 402.516L581.712 402.5H582.229L641.634 401.991L686.289 424.671Z" fill="#65617D"/>
<path opacity="0.2" d="M686.289 424.671V435.016L565.491 436.13L564.203 436.154L518.291 436.575L517.194 436.591L503.239 436.711H502.826L417.761 437.499L278.126 438.796H278.006L242.503 439.13L242.122 439.138L84.3649 440.586V428.649L121.458 406.367L195.884 405.747L197.474 405.739L197.999 405.731L199.589 405.707L235.323 405.413L236.921 405.405L237.43 405.397L239.02 405.389L250.479 405.293L250.781 405.285L279.048 405.046H279.279L499.852 403.184L505.251 403.145H505.792L509.91 403.105L539.848 402.858L541.438 402.834L542.909 402.818H543.672L552.983 402.747L554.828 402.723L557.301 402.707L565.054 402.635L577.355 402.532L578.945 402.516L581.712 402.5H582.229L641.634 401.991L686.289 424.671Z" fill="black"/>
<path d="M235.442 384.889V404.378C235.443 405.301 235.182 406.205 234.689 406.986C234.196 407.766 233.492 408.391 232.659 408.787C232.039 409.088 231.361 409.251 230.671 409.264L202.921 409.853C202.18 409.871 201.445 409.715 200.774 409.399C199.926 409.01 199.208 408.386 198.705 407.6C198.201 406.814 197.934 405.9 197.935 404.967V384.889H235.442Z" fill="#3F3D56"/>
<path opacity="0.1" d="M235.442 384.889V404.378C235.443 405.301 235.182 406.205 234.689 406.986C234.196 407.766 233.492 408.391 232.659 408.787C232.039 409.088 231.361 409.251 230.671 409.264L202.921 409.853C202.18 409.871 201.445 409.715 200.774 409.399C199.926 409.01 199.208 408.386 198.705 407.6C198.201 406.814 197.934 405.9 197.935 404.967V384.889H235.442Z" fill="black"/>
<path d="M237.033 384.889V404.378C237.033 405.301 236.772 406.205 236.279 406.986C235.787 407.766 235.083 408.391 234.25 408.787C233.629 409.088 232.951 409.251 232.262 409.264L204.511 409.853C203.77 409.871 203.035 409.715 202.364 409.399C201.516 409.01 200.798 408.386 200.295 407.6C199.792 406.814 199.525 405.9 199.526 404.967V384.889H237.033Z" fill="#3F3D56"/>
<path d="M578.945 384.889H541.438V409.956H578.945V384.889Z" fill="#3F3D56"/>
<path opacity="0.1" d="M578.945 384.889H541.438V409.956H578.945V384.889Z" fill="black"/>
<path d="M577.355 384.889H539.848V409.956H577.355V384.889Z" fill="#3F3D56"/>
<path opacity="0.1" d="M183.36 211.536V216.095L168.253 215.705V211.536H183.36Z" fill="black"/>
<path d="M282.801 83.0799L264.648 213.589C264.533 214.422 264.115 215.184 263.474 215.729C262.833 216.273 262.014 216.563 261.173 216.541L115.821 212.769L113.062 212.697C112.581 212.686 112.109 212.573 111.675 212.367C111.241 212.16 110.855 211.865 110.543 211.499C110.231 211.133 109.999 210.706 109.863 210.245C109.727 209.783 109.69 209.299 109.754 208.822L130.133 72.2016C130.265 71.3553 130.708 70.5891 131.377 70.0543C132.045 69.5194 132.89 69.2549 133.743 69.3129L279.621 79.1965C280.091 79.2238 280.551 79.3484 280.971 79.5625C281.391 79.7767 281.762 80.0756 282.061 80.4405C282.36 80.8054 282.58 81.2284 282.708 81.6826C282.835 82.1369 282.867 82.6127 282.801 83.0799Z" fill="#65617D"/>
<path d="M139.89 78.91L124.52 199.336L258.104 203.578L274.532 87.3931L139.89 78.91Z" fill="#D4DFEC"/>
<path d="M464.317 77.0479H310.051C307.71 77.0479 305.813 78.9469 305.813 81.2894V210.74C305.813 213.082 307.71 214.981 310.051 214.981H464.317C466.657 214.981 468.555 213.082 468.555 210.74V81.2894C468.555 78.9469 466.657 77.0479 464.317 77.0479Z" fill="#65617D"/>
<path d="M461.391 86.3347H313.494V201.19H461.391V86.3347Z" fill="#D4DFEC"/>
<path opacity="0.1" d="M589.942 209.148V212.164L574.834 212.475V209.148H589.942Z" fill="black"/>
<path d="M658.109 206.602C658.131 206.931 658.086 207.262 657.976 207.574C657.867 207.886 657.696 208.172 657.473 208.416C657.25 208.66 656.98 208.856 656.68 208.993C656.379 209.129 656.054 209.204 655.724 209.212L506.873 212.292C506.255 212.304 505.654 212.083 505.193 211.671C504.731 211.259 504.442 210.687 504.384 210.071L491.59 76.9524C491.559 76.6221 491.594 76.2889 491.695 75.9728C491.796 75.6568 491.96 75.3646 492.177 75.1138C492.394 74.8631 492.66 74.659 492.958 74.5141C493.256 74.3691 493.581 74.2863 493.912 74.2706L641.634 66.9175L643.224 66.838C643.856 66.8046 644.477 67.0184 644.955 67.4341C645.432 67.8498 645.73 68.435 645.785 69.0662L658.109 206.602Z" fill="#65617D"/>
<path d="M500.09 82.0931L635.003 75.4563L646.397 196.416L512.55 199.599L500.09 82.0931Z" fill="#D4DFEC"/>
<path opacity="0.1" d="M658.109 206.602C658.131 206.931 658.086 207.262 657.976 207.574C657.867 207.885 657.696 208.172 657.473 208.416C657.25 208.66 656.98 208.856 656.68 208.993C656.379 209.129 656.054 209.204 655.724 209.212L641.634 66.9175L643.224 66.838C643.856 66.8046 644.477 67.0184 644.955 67.4341C645.432 67.8498 645.73 68.435 645.785 69.0662L658.109 206.602Z" fill="black"/>
<path opacity="0.1" d="M133.767 69.3049L115.821 212.769L113.062 212.697C112.581 212.686 112.109 212.573 111.675 212.367C111.241 212.16 110.855 211.865 110.543 211.499C110.231 211.133 109.999 210.706 109.863 210.245C109.727 209.783 109.69 209.299 109.754 208.822L130.133 72.2016C130.263 71.3494 130.71 70.5778 131.383 70.0407C132.057 69.5037 132.908 69.2409 133.767 69.3049Z" fill="black"/>
<path opacity="0.1" d="M183.36 243.836H168.253V257.428H183.36V243.836Z" fill="black"/>
<path opacity="0.1" d="M237.033 384.881V388.836L199.526 389.839V384.881H237.033Z" fill="black"/>
<path d="M303.228 248.571V382.422C303.219 383.239 302.896 384.021 302.326 384.607C301.756 385.192 300.983 385.535 300.167 385.566L147.778 389.624H147.738C146.908 389.614 146.115 389.279 145.528 388.692C144.942 388.105 144.607 387.311 144.597 386.481V248.571C144.607 247.741 144.942 246.947 145.528 246.36C146.115 245.773 146.908 245.438 147.738 245.428H300.088C300.917 245.438 301.71 245.773 302.297 246.36C302.884 246.947 303.218 247.741 303.228 248.571Z" fill="#65617D"/>
<path opacity="0.1" d="M147.778 245.428V389.624H147.738C146.908 389.614 146.115 389.279 145.528 388.692C144.942 388.105 144.607 387.311 144.597 386.481V248.571C144.607 247.741 144.942 246.947 145.528 246.36C146.115 245.773 146.908 245.438 147.738 245.428H147.778Z" fill="black"/>
<path d="M154.735 253.975H295.873V371.95L154.735 375.133V253.975Z" fill="#D4DFEC"/>
<path opacity="0.1" d="M589.942 243.836H574.834V257.699H589.942V243.836Z" fill="black"/>
<path opacity="0.1" d="M577.355 384.881V389.982L539.848 388.98V384.881H577.355Z" fill="black"/>
<path d="M626.852 248.571V386.481C626.842 387.318 626.502 388.118 625.907 388.706C625.311 389.294 624.508 389.624 623.672 389.624L471.25 385.566C470.435 385.535 469.662 385.192 469.092 384.607C468.522 384.021 468.199 383.239 468.189 382.422V248.571C468.199 247.741 468.534 246.947 469.12 246.36C469.707 245.773 470.5 245.438 471.33 245.428H623.68C624.515 245.43 625.316 245.761 625.91 246.349C626.503 246.937 626.842 247.735 626.852 248.571Z" fill="#65617D"/>
<path opacity="0.1" d="M626.852 248.571V386.481C626.842 387.318 626.502 388.118 625.907 388.706C625.311 389.294 624.508 389.624 623.672 389.624V245.428C624.508 245.428 625.311 245.758 625.907 246.346C626.502 246.935 626.842 247.734 626.852 248.571Z" fill="black"/>
<path d="M616.714 253.975H475.576V371.95L616.714 375.133V253.975Z" fill="#D4DFEC"/>
<path d="M464.245 248.571V382.422C464.236 383.239 463.912 384.021 463.343 384.607C462.773 385.192 462 385.535 461.184 385.566L308.794 389.624C307.958 389.624 307.155 389.294 306.559 388.706C305.964 388.118 305.624 387.318 305.614 386.481V248.571C305.624 247.741 305.958 246.947 306.545 246.36C307.132 245.773 307.925 245.438 308.755 245.428H461.104C461.934 245.438 462.727 245.773 463.314 246.36C463.901 246.947 464.235 247.741 464.245 248.571Z" fill="#65617D"/>
<path d="M315.752 253.975H456.89V371.95L315.752 375.133V253.975Z" fill="#D4DFEC"/>
<path opacity="0.1" d="M686.289 424.671V435.016L565.491 436.13L564.203 436.154L518.291 436.575L517.194 436.591L503.239 436.711H502.826L417.761 437.499L278.126 438.796H278.006L242.503 439.13L242.122 439.138L84.3649 440.586V428.649L245.39 427.591H245.771L278.364 427.368H278.515L503.605 425.88H503.835L503.971 425.872H504.344L508.153 425.848H509.314L568.544 425.45L572.043 425.434L572.822 425.426L686.289 424.671Z" fill="black"/>
<path d="M387.442 257.428C409.984 257.428 428.257 239.14 428.257 216.581C428.257 194.021 409.984 175.733 387.442 175.733C364.901 175.733 346.627 194.021 346.627 216.581C346.627 239.14 364.901 257.428 387.442 257.428Z" fill="#FBBEBE"/>
<path d="M428.265 300.138C428.265 300.138 349.148 309.688 356.702 300.138C359.437 296.684 360.193 286.451 360.042 274.792C359.994 271.251 359.867 267.583 359.684 263.93C358.809 246.423 356.702 229.313 356.702 229.313C356.702 229.313 425.879 196.686 417.928 222.549C414.747 232.998 415.789 247.672 418.206 261.447C418.914 265.466 419.733 269.405 420.592 273.145C422.688 282.268 425.249 291.277 428.265 300.138Z" fill="#9C7248"/>
<path opacity="0.1" d="M428.265 300.138C428.265 300.138 349.148 309.688 356.702 300.138C359.437 296.684 360.193 286.451 360.042 274.792C372.104 269.636 387.45 273.479 387.45 273.479C403.607 270.256 413.968 270.885 420.592 273.145C422.688 282.268 425.249 291.277 428.265 300.138Z" fill="black"/>
<path d="M278.094 439.695V439.026L417.737 437.507L502.818 436.711H503.056L502.969 437.888L503.088 436.711H503.239V436.575L504.328 425.872L504.742 421.822L504.869 420.556L504.98 419.498L509.894 403.097L514.808 386.72L518.943 372.929L525.257 351.856C525.257 351.856 521.678 343.5 519.691 341.113C517.703 338.726 515.715 322.412 515.715 322.412C515.715 322.412 498.746 306.234 491.328 304.372C488.219 303.576 482.08 302.518 475.56 301.189C473.119 300.695 470.614 300.17 468.205 299.597C466.845 299.287 465.509 298.96 464.229 298.634C461.738 298.011 459.282 297.251 456.874 296.358C455.612 295.899 454.41 295.287 453.296 294.536C447.452 290.247 432.805 289.761 432.241 289.761C432.239 289.743 432.239 289.724 432.241 289.705V289.634C432.261 289.3 432.261 288.965 432.241 288.631C432.241 288.313 432.241 287.939 432.169 287.517C432.169 287.39 432.169 287.254 432.113 287.119C432.074 286.833 432.026 286.53 431.954 286.212C431.93 286.07 431.898 285.929 431.859 285.79C431.629 284.831 431.295 283.9 430.865 283.013C430.809 282.886 430.738 282.75 430.674 282.623C430.284 281.888 429.832 281.188 429.322 280.53C429.219 280.395 429.108 280.251 428.988 280.116C428.337 279.348 427.613 278.644 426.826 278.015C426.611 277.848 426.388 277.673 426.158 277.514C426.029 277.41 425.894 277.314 425.752 277.228L425.045 276.766L424.385 276.384C423.804 276.066 423.192 275.755 422.524 275.461C422.317 275.365 422.095 275.278 421.872 275.19C421.649 275.103 421.299 274.967 421.005 274.856H420.958L420.361 274.617C419.908 274.466 419.447 274.331 418.962 274.196L418.222 274.005L417.427 273.822L416.632 273.654C415.837 273.495 414.986 273.352 414.095 273.241L413.189 273.129L412.259 273.034L411.296 272.954L409.929 272.875L408.339 272.819C401.325 272.818 394.331 273.563 387.474 275.039C382.711 273.978 377.831 273.529 372.955 273.702H372.263L371.468 273.75H370.959L369.933 273.845C369.591 273.845 369.241 273.917 368.899 273.965C368.558 274.013 368.2 274.052 367.858 274.108L367.333 274.196C366.816 274.283 366.291 274.379 365.743 274.49C365.568 274.522 365.393 274.562 365.218 274.609C364.526 274.761 363.834 274.944 363.15 275.151C362.809 275.246 362.467 275.357 362.125 275.477C361.95 275.525 361.783 275.588 361.616 275.652L361.107 275.835L360.606 276.034L360.01 276.273C359.708 276.4 359.413 276.535 359.119 276.678C358.952 276.75 358.785 276.83 358.626 276.917C358.467 277.005 358.3 277.076 358.149 277.164C356.351 278.094 354.69 279.266 353.211 280.649L352.806 281.039L352.408 281.445C352.273 281.58 352.146 281.724 352.018 281.867C351.5 282.434 351.017 283.032 350.571 283.657C350.444 283.825 350.325 283.992 350.206 284.167C349.701 284.912 349.244 285.688 348.838 286.49C348.735 286.681 348.639 286.88 348.544 287.071C347.895 288.416 347.363 289.814 346.953 291.249C346.805 291.78 346.67 292.31 346.548 292.841C346.548 292.841 329.715 300.273 315.752 305.653C312.039 307.085 308.54 308.382 305.614 309.361C304.763 309.648 303.968 309.91 303.228 310.157C301.624 310.738 299.955 311.122 298.259 311.303C297.459 311.316 296.662 311.391 295.873 311.526C289.457 312.568 278.46 317.096 277.259 321.64C277.162 322.003 277.135 322.381 277.179 322.754C277.179 322.754 277.179 322.81 277.179 322.842C277.975 328.412 272.409 327.617 272.409 327.617C272.409 327.617 270.421 342.339 267.638 346.318C265.626 349.182 264.25 355.573 264.076 360.395C263.976 361.897 264.093 363.407 264.425 364.875C264.425 364.915 264.425 364.955 264.425 364.987C264.743 366.053 263.98 368.966 262.684 372.698C261.277 376.796 259.225 381.889 257.253 386.696C254.279 393.953 251.48 400.542 251.305 401.991C251.234 402.635 251.027 403.789 250.741 405.277C249.58 411.341 247.004 422.888 245.732 427.559C244.785 431.045 243.41 435.819 242.463 439.098C242.463 439.194 242.408 439.289 242.384 439.377L278.03 439.026V439.695H278.142H278.094Z" fill="#FC5C65"/>
<path opacity="0.1" d="M291.102 345.896C291.102 345.896 336.426 369.371 352.726 366.586L291.102 345.896Z" fill="black"/>
<path opacity="0.1" d="M383.339 336.346C383.339 336.346 427.47 350.67 442.18 352.66C456.89 354.649 383.339 336.346 383.339 336.346Z" fill="black"/>
<path opacity="0.1" d="M432.288 290.255C409.229 294.504 365.814 293.589 347.049 292.944C353.927 268.275 387.466 276.663 387.466 276.663C428.981 268.37 432.161 285.575 432.288 290.255Z" fill="black"/>
<path d="M432.288 288.663C409.229 292.912 365.814 291.997 347.049 291.353C353.927 266.683 387.466 275.071 387.466 275.071C428.981 266.779 432.161 283.984 432.288 288.663Z" fill="#FC5C65"/>
<path d="M554.693 397.423C554.693 397.423 581.855 393.245 582.388 405.182C582.921 417.119 568.536 425.458 568.536 425.458L554.693 397.423Z" fill="#9C7248"/>
<path opacity="0.1" d="M418.206 261.447C417.038 261.97 415.844 262.432 414.628 262.832C406.057 265.792 397.413 268.776 388.388 269.859C379.364 270.941 369.893 269.986 362.021 265.482C361.195 265.014 360.398 264.496 359.636 263.93C358.761 246.423 356.654 229.313 356.654 229.313C356.654 229.313 425.832 196.686 417.88 222.549C414.716 232.998 415.789 247.672 418.206 261.447Z" fill="black"/>
<path d="M376.247 152.735C375.112 153.035 373.922 153.065 372.774 152.823C371.625 152.582 370.549 152.074 369.631 151.342L371.285 153.642C370.31 153.755 369.323 153.653 368.391 153.344C367.46 153.034 366.608 152.525 365.894 151.852C365.744 153.91 365.829 155.98 366.148 158.019C363.412 158.151 360.717 157.305 358.547 155.632C358.504 156.35 358.683 157.063 359.058 157.676C359.433 158.29 359.988 158.773 360.646 159.061C357.897 158.733 355.122 159.416 352.84 160.985C350.557 162.553 348.923 164.899 348.242 167.584L352.392 167.966C349.13 168.664 346.203 170.451 344.091 173.035C342.819 174.627 341.849 176.664 342.405 178.606C342.962 180.548 345.649 181.789 347.112 180.404C345.031 182.89 343.519 185.802 342.681 188.935C341.843 192.068 341.7 195.346 342.262 198.54C342.639 199.901 342.763 201.32 342.628 202.726C342.365 204.039 341.538 205.177 341.125 206.458C340.33 208.782 341.085 211.305 341.793 213.62L345.522 225.891C346.874 230.324 348.218 234.764 349.983 239.054C351.233 241.766 352.296 244.56 353.163 247.417C354.165 251.269 354.205 255.487 356.344 258.853C357.81 260.971 359.77 262.7 362.053 263.89C369.917 268.394 379.419 269.349 388.42 268.267C397.421 267.185 406.057 264.201 414.62 261.24C416.523 260.667 418.349 259.865 420.059 258.853C425.983 254.969 427.303 247.028 428.408 240.033C429.641 232.234 431.286 224.451 434.205 217.114C435.938 212.745 438.18 208.313 437.799 203.633C437.314 197.418 432.4 192.381 431.183 186.269C430.776 184.226 430.795 182.121 431.239 180.086C431.616 178.873 431.827 177.615 431.867 176.346C431.732 173.783 429.633 171.81 427.661 170.163C423.383 166.587 418.967 163.207 414.413 160.024C414.183 158.433 416.346 157.748 417.324 156.491C418.707 154.716 417.276 151.899 415.177 151.072C413.078 150.244 410.724 150.785 408.537 151.334C408.68 150.214 408.457 149.078 407.903 148.095C407.348 147.111 406.491 146.333 405.459 145.876C404.428 145.42 403.276 145.308 402.176 145.559C401.076 145.81 400.086 146.409 399.353 147.268C398.773 145.935 397.845 144.783 396.667 143.932C395.49 143.081 394.105 142.562 392.658 142.43C387.386 142.016 387.283 146.05 383.912 148.271C380.54 150.491 377.757 147.562 375.165 145.43C374.689 146.635 374.538 147.945 374.728 149.227C374.918 150.51 375.441 151.719 376.247 152.735Z" fill="#3F3D56"/>
<path d="M574.834 421.296C574.834 421.296 574.126 422.983 572.822 425.426C570.85 429.185 568.448 432.702 565.666 435.907L565.451 436.138H564.163L518.251 436.56H517.154L517.019 436.4L508.113 425.824L504.758 421.837L504.623 421.67L504.336 421.336L504.177 421.145L503.971 420.898L497.443 413.148L499.828 403.2L503.891 386.441L503.994 386.035L504.79 382.852L505.354 380.465L507.247 372.682L513.735 345.904L525.265 351.872L537.422 373.358L543.95 384.897H547.529C548.205 384.897 549.755 386.202 551.314 387.706C551.87 388.239 552.427 388.804 552.904 389.298C554.319 390.762 555.44 392.019 555.44 392.019C555.44 392.019 561.237 392.147 562.795 396.715C562.876 396.936 562.942 397.162 562.994 397.391C563.512 399.186 564.185 400.933 565.006 402.611C566.032 404.848 567.32 407.386 568.624 409.925C571.049 414.58 573.514 419.012 574.42 420.62L574.532 420.819L574.834 421.296Z" fill="#FC5C65"/>
<path opacity="0.1" d="M506.531 385.367L506.452 386.505V386.584L506.316 388.415L505.259 403.145L503.979 420.891L503.613 425.888L502.818 436.583V436.719L417.737 437.515L278.118 439.026V439.695H278.006V439.026V438.804L278.364 427.376L279.048 405.047L279.636 386.115L279.692 384.229C279.727 383.09 279.993 381.971 280.475 380.939C280.956 379.907 281.643 378.984 282.493 378.227C283.343 377.47 284.338 376.894 285.417 376.534C286.497 376.174 287.639 376.039 288.773 376.136C292.526 376.454 297.4 376.844 303.228 377.258L305.614 377.433C339.272 379.772 401.477 382.796 464.245 379.024C465.565 378.953 466.893 378.873 468.221 378.778C477.954 378.165 487.678 377.377 497.307 376.39C498.525 376.263 499.755 376.404 500.912 376.803C502.069 377.203 503.124 377.852 504.004 378.704C504.883 379.556 505.565 380.59 506.002 381.735C506.438 382.879 506.619 384.105 506.531 385.327V385.367Z" fill="black"/>
<path d="M278.094 439.695V439.026L417.737 437.507L502.818 436.711H503.056V436.575L503.851 425.88L504.193 421.105L505.497 403.113L506.523 388.868V388.518C506.57 387.862 506.541 387.202 506.436 386.552C506.44 386.526 506.44 386.499 506.436 386.473C506.217 385.13 505.671 383.861 504.845 382.78C503.97 381.657 502.823 380.775 501.512 380.218C500.202 379.661 498.771 379.447 497.355 379.597C487.726 380.584 478.001 381.372 468.269 381.985C466.941 382.08 465.613 382.16 464.293 382.231C401.524 385.964 339.32 382.94 305.662 380.64L303.276 380.465C297.448 380.051 292.574 379.669 288.82 379.343C286.756 379.168 284.7 379.765 283.049 381.019C281.399 382.273 280.271 384.094 279.883 386.131C279.803 386.561 279.755 386.998 279.74 387.436L279.199 405.07L278.46 427.408L278.11 438.835V439.058V439.727L278.094 439.695Z" fill="#3F3D56"/>
<path opacity="0.1" d="M506.77 390.945L505.792 403.145L504.336 421.328L503.971 425.88L503.176 436.074L503.128 436.583V436.719L503.009 437.896L503.096 436.719H502.865L417.785 437.514L278.118 439.026V438.804L278.507 427.376L279.303 405.046L279.811 390.205C279.836 389.361 280.072 388.536 280.497 387.807C280.922 387.077 281.523 386.465 282.245 386.027C283.145 385.475 284.198 385.224 285.25 385.311C286.92 385.446 288.971 385.605 291.365 385.781C295.253 386.067 300.048 386.401 305.63 386.751C315.967 387.404 328.935 388.104 343.797 388.677C385.144 390.269 440.963 390.802 493.984 386.155C496.369 385.948 498.834 385.717 501.243 385.486C502.197 385.391 503.158 385.573 504.01 386.011C504.252 386.132 504.481 386.276 504.694 386.441C505.386 386.943 505.935 387.618 506.285 388.399C506.366 388.554 506.432 388.716 506.483 388.884C506.722 389.543 506.82 390.246 506.77 390.945Z" fill="black"/>
<path opacity="0.1" d="M237.033 401.839V404.378C237.033 405.301 236.772 406.205 236.279 406.986C235.787 407.766 235.083 408.391 234.25 408.787L202.364 409.399C201.516 409.011 200.798 408.386 200.295 407.6C199.792 406.814 199.525 405.9 199.526 404.967V402.579L237.033 401.839Z" fill="black"/>
<path d="M237.43 410.283L195.884 411.079V404.179L237.43 403.383V410.283Z" fill="#3F3D56"/>
<path opacity="0.1" d="M237.43 410.283L195.884 411.079V404.179L237.43 403.383V410.283Z" fill="black"/>
<path d="M239.02 410.283L197.474 411.079V404.179L239.02 403.383V410.283Z" fill="#3F3D56"/>
<g opacity="0.1">
<path opacity="0.1" d="M376.573 150.125C375.796 149.115 375.28 147.928 375.07 146.671C374.878 147.9 374.993 149.158 375.404 150.332C375.798 150.295 376.189 150.226 376.573 150.125Z" fill="black"/>
<path opacity="0.1" d="M366.474 155.409C366.324 154.433 366.226 153.45 366.18 152.464C366.18 153.443 366.18 154.43 366.18 155.417L366.474 155.409Z" fill="black"/>
<path opacity="0.1" d="M431.278 181.964C431.322 181.255 431.418 180.55 431.565 179.855C431.941 178.645 432.155 177.39 432.201 176.123C432.183 175.839 432.14 175.556 432.074 175.28C431.938 176.012 431.724 176.744 431.565 177.468C431.247 178.944 431.151 180.459 431.278 181.964Z" fill="black"/>
<path opacity="0.1" d="M414.739 157.374L415.606 158.003C416.337 157.474 417.021 156.883 417.65 156.236C417.949 155.822 418.134 155.337 418.187 154.828C418.24 154.32 418.159 153.807 417.952 153.34C417.873 153.521 417.771 153.693 417.65 153.849C416.672 155.106 414.509 155.799 414.739 157.374Z" fill="black"/>
<path opacity="0.1" d="M349.402 165.03C349.112 165.61 348.881 166.218 348.711 166.844C349.955 166.149 351.294 165.643 352.686 165.34L349.402 165.03Z" fill="black"/>
<path opacity="0.1" d="M360.367 156.372C359.845 156.084 359.345 155.756 358.873 155.393C358.853 155.708 358.877 156.024 358.944 156.332C359.419 156.309 359.895 156.323 360.367 156.372Z" fill="black"/>
<path opacity="0.1" d="M438.109 203.259C437.783 207.119 435.986 210.835 434.531 214.496C431.612 221.833 429.967 229.616 428.734 237.422C427.629 244.417 426.349 252.359 420.385 256.235C418.681 257.254 416.857 258.056 414.954 258.622C406.383 261.59 397.739 264.567 388.714 265.649C379.69 266.731 370.219 265.784 362.347 261.28C360.065 260.088 358.106 258.36 356.638 256.243C354.515 252.877 354.475 248.659 353.458 244.807C352.59 241.947 351.527 239.15 350.277 236.436C348.52 232.154 347.168 227.682 345.824 223.281C344.579 219.191 343.336 215.098 342.095 211.002C341.687 209.77 341.383 208.506 341.189 207.222C340.879 209.26 341.483 211.392 342.095 213.39C343.336 217.491 344.579 221.584 345.824 225.669C347.168 230.101 348.52 234.542 350.277 238.823C351.527 241.537 352.59 244.335 353.458 247.195C354.46 251.046 354.499 255.264 356.638 258.63C358.106 260.747 360.065 262.475 362.347 263.667C370.219 268.171 379.713 269.118 388.714 268.036C397.715 266.954 406.351 263.978 414.954 261.009C416.857 260.443 418.681 259.641 420.385 258.622C426.309 254.747 427.629 246.805 428.734 239.81C429.967 232.003 431.612 224.22 434.531 216.883C436.264 212.522 438.506 208.09 438.125 203.403C438.125 203.355 438.109 203.307 438.109 203.259Z" fill="black"/>
<path opacity="0.1" d="M342.938 200.18C342.938 200.18 342.938 200.124 342.938 200.092C343.081 198.689 342.957 197.271 342.572 195.914C342.414 195.041 342.31 194.159 342.262 193.272C342.171 194.955 342.275 196.643 342.572 198.302C342.699 198.922 342.843 199.551 342.938 200.18Z" fill="black"/>
<path opacity="0.1" d="M345.363 180.715C345.975 179.687 346.669 178.71 347.438 177.794C345.983 179.187 343.296 177.945 342.731 176.012C342.523 176.794 342.523 177.617 342.731 178.399C342.927 178.983 343.274 179.505 343.736 179.911C344.198 180.318 344.759 180.595 345.363 180.715Z" fill="black"/>
</g>
<path opacity="0.1" d="M543.958 384.889C543.958 384.889 546.479 394.041 543.958 401.999C541.438 409.956 543.958 384.889 543.958 384.889Z" fill="black"/>
<path opacity="0.1" d="M554.693 394.224C554.693 394.224 555.75 405.842 553.365 407.903C550.98 409.964 554.693 394.224 554.693 394.224Z" fill="black"/>
<path d="M158.226 272.843L239.02 272.047" stroke="#6C63FF" stroke-width="2" stroke-miterlimit="10"/>
<path d="M158.226 282.766L239.02 281.978" stroke="#6C63FF" stroke-width="2" stroke-miterlimit="10"/>
<path d="M158.226 292.698L239.02 291.902" stroke="#6C63FF" stroke-width="2" stroke-miterlimit="10"/>
<circle cx="345.5" cy="192.5" r="8.5" fill="#3F3D56"/>
<circle cx="349.5" cy="177.5" r="8.5" fill="#3F3D56"/>
<circle cx="355.5" cy="164.5" r="8.5" fill="#3F3D56"/>
<circle cx="367.5" cy="151.5" r="8.5" fill="#3F3D56"/>
<circle cx="379.5" cy="148.5" r="8.5" fill="#3F3D56"/>
<circle cx="391.5" cy="145.5" r="8.5" fill="#3F3D56"/>
<circle cx="403.5" cy="152.5" r="8.5" fill="#3F3D56"/>
<circle cx="415.5" cy="159.5" r="8.5" fill="#3F3D56"/>
<circle cx="427.5" cy="176.5" r="8.5" fill="#3F3D56"/>
<circle cx="429.5" cy="193.5" r="8.5" fill="#3F3D56"/>
</g>
<defs>
<clipPath id="clip0">
<rect width="828" height="441" fill="white"/>
</clipPath>
</defs>
</svg>
