<svg width="46" height="46" viewBox="0 0 46 46" fill="none" xmlns="http://www.w3.org/2000/svg">
<path d="M28.4223 12.0788C27.0077 12.0137 26.5822 12.0022 23 12.0022C19.4177 12.0022 18.9942 12.0156 17.5797 12.0788C13.9399 12.2456 12.2456 13.9687 12.0788 17.5797C12.0156 18.9942 12.0002 19.4177 12.0002 23C12.0002 26.5822 12.0156 27.0058 12.0788 28.4223C12.2456 32.0237 13.9323 33.7563 17.5797 33.9231C18.9922 33.9863 19.4177 34.0017 23 34.0017C26.5842 34.0017 27.0077 33.9882 28.4223 33.9231C32.062 33.7582 33.7544 32.0294 33.9231 28.4223C33.9863 27.0077 33.9997 26.5822 33.9997 23C33.9997 19.4177 33.9863 18.9942 33.9231 17.5797C33.7544 13.9706 32.0582 12.2456 28.4223 12.0788ZM23 29.8904C19.1954 29.8904 16.1096 26.8065 16.1096 23C16.1096 19.1954 19.1954 16.1115 23 16.1115C26.8046 16.1115 29.8904 19.1954 29.8904 23C29.8904 26.8046 26.8046 29.8904 23 29.8904ZM30.1626 17.4493C29.2733 17.4493 28.5526 16.7287 28.5526 15.8393C28.5526 14.95 29.2733 14.2293 30.1626 14.2293C31.0519 14.2293 31.7726 14.95 31.7726 15.8393C31.7726 16.7267 31.0519 17.4493 30.1626 17.4493ZM27.4716 23C27.4716 25.4706 25.4687 27.4716 23 27.4716C20.5313 27.4716 18.5284 25.4706 18.5284 23C18.5284 20.5294 20.5313 18.5284 23 18.5284C25.4687 18.5284 27.4716 20.5294 27.4716 23ZM23 0C10.2983 0 0 10.2983 0 23C0 35.7017 10.2983 46 23 46C35.7017 46 46 35.7017 46 23C46 10.2983 35.7017 0 23 0ZM36.3362 28.5315C36.1157 33.4094 33.3998 36.1119 28.5334 36.3362C27.1017 36.4013 26.6436 36.4167 23 36.4167C19.3564 36.4167 18.9002 36.4013 17.4685 36.3362C12.5925 36.1119 9.88808 33.4056 9.66383 28.5315C9.59867 27.1017 9.58333 26.6436 9.58333 23C9.58333 19.3564 9.59867 18.9002 9.66383 17.4685C9.88808 12.5925 12.5944 9.88808 17.4685 9.66575C18.9002 9.59867 19.3564 9.58333 23 9.58333C26.6436 9.58333 27.1017 9.59867 28.5334 9.66575C33.4113 9.89 36.1177 12.6021 36.3362 17.4685C36.4013 18.9002 36.4167 19.3564 36.4167 23C36.4167 26.6436 36.4013 27.1017 36.3362 28.5315Z" fill="#8709FC"/>
</svg>
